<?xml version="1.0" standalone="no"?>
<!DOCTYPE svg PUBLIC "-//W3C//DTD SVG 20010904//EN"
 "http://www.w3.org/TR/2001/REC-SVG-20010904/DTD/svg10.dtd">
<svg version="1.0" xmlns="http://www.w3.org/2000/svg"
 width="675.000000pt" height="722.000000pt" viewBox="0 0 675.000000 722.000000"
 preserveAspectRatio="xMidYMid meet">

<g transform="translate(0.000000,722.000000) scale(0.100000,-0.100000)"
fill="#000000" stroke="none">
<path d="M3460 7141 c0 -11 -4 -23 -10 -26 -5 -3 -10 -16 -10 -28 0 -20 1 -20
17 -4 16 15 18 15 35 0 17 -15 18 -15 18 1 0 23 -28 76 -40 76 -6 0 -10 -9
-10 -19z"/>
<path d="M1805 7061 l-30 -6 -3 -1848 -2 -1847 -196 0 -196 0 4 32 c2 19 -2
33 -9 35 -14 5 -17 -18 -7 -54 6 -23 7 -23 205 -23 l199 0 0 -229 0 -229 38
-4 c21 -3 40 0 44 6 5 7 -6 12 -32 14 l-40 3 0 220 0 219 335 0 335 0 0 -220
0 -220 -42 0 c-32 0 -39 -3 -31 -11 17 -17 151 -18 158 -1 3 8 -8 12 -36 12
l-39 0 2 218 3 217 1353 2 1352 3 0 -219 0 -220 -35 -3 c-23 -2 -32 -7 -27
-14 4 -7 21 -9 39 -7 l33 5 2 227 3 226 223 3 222 2 0 41 c0 28 -4 39 -12 36
-8 -2 -12 -16 -10 -35 l4 -32 -216 0 -216 0 0 1290 0 1290 216 0 215 0 -3 -27
c-2 -15 2 -28 10 -30 9 -4 12 14 12 67 0 53 -3 71 -12 67 -8 -2 -12 -16 -10
-36 l4 -31 -214 2 -213 3 -2 549 c-2 302 -4 550 -5 552 -9 8 -69 7 -67 -1 2
-5 16 -9 32 -7 l27 2 0 -550 0 -550 -650 0 -650 0 0 300 c0 279 -1 300 -17
301 -10 1 -92 0 -182 -1 l-164 -2 7 56 c8 60 6 64 -17 41 -10 -10 -14 -29 -11
-57 2 -24 1 -35 -2 -25 -3 9 -12 17 -20 17 -9 0 -14 11 -14 36 0 24 -4 34 -12
31 -8 -2 -13 -22 -12 -51 l0 -48 -162 4 c-89 1 -166 0 -170 -5 -9 -9 -46 -8
398 -8 l367 0 1 -481 c0 -265 2 -484 5 -486 3 -3 5 79 5 181 l0 187 650 0 650
0 0 -1290 0 -1290 -1355 0 -1355 0 0 220 0 220 195 0 195 0 -2 308 -3 307 -2
-302 -3 -303 -385 0 -385 0 2 385 c2 212 0 385 -4 385 -5 0 -8 -175 -8 -390
l0 -390 195 0 195 0 0 -220 0 -220 -335 0 -335 0 0 1845 0 1846 34 -6 c19 -4
36 -2 40 3 8 14 -13 19 -49 13z"/>
<path d="M5610 6731 c0 -17 0 -34 -1 -38 0 -4 4 -9 10 -11 14 -5 15 65 1 73
-6 4 -10 -7 -10 -24z"/>
<path d="M1366 6735 c-11 -29 -7 -55 9 -55 11 0 13 8 8 33 -7 40 -9 42 -17 22z"/>
<path d="M5511 6353 c-1 -33 -1 -33 47 -33 41 1 45 2 30 14 -10 7 -18 21 -18
30 0 9 -4 16 -10 16 -5 0 -10 -9 -10 -20 0 -27 -28 -25 -33 3 -3 16 -5 13 -6
-10z"/>
<path d="M2402 5458 l-2 -27 -46 19 c-54 24 -77 25 -49 4 19 -14 19 -16 2 -25
-9 -6 -15 -14 -12 -18 2 -5 -2 -14 -10 -21 -8 -7 -15 -23 -15 -36 0 -22 4 -24
45 -24 43 0 45 1 45 29 0 16 -6 31 -15 35 -8 3 -15 10 -15 15 0 14 33 23 41
10 4 -6 12 -8 18 -4 9 5 11 -71 10 -307 -2 -173 1 -319 5 -326 5 -9 135 -12
537 -12 291 0 529 3 529 8 0 4 -238 6 -530 4 l-530 -2 -3 352 c-1 194 -3 341
-5 326z m-62 -93 c0 -9 -9 -15 -25 -15 -16 0 -25 6 -25 15 0 9 9 15 25 15 16
0 25 -6 25 -15z"/>
<path d="M2305 5301 c-39 -17 -39 -18 -18 -29 12 -7 33 -16 47 -22 25 -9 26
-8 26 30 0 46 -1 46 -55 21z m35 -21 c0 -5 -4 -10 -9 -10 -6 0 -13 5 -16 10
-3 6 1 10 9 10 9 0 16 -4 16 -10z"/>
<path d="M3460 5145 l0 -64 -72 -3 c-57 -2 -73 -6 -73 -18 0 -11 17 -16 70
-20 l70 -5 3 -67 c3 -60 5 -68 22 -68 18 0 20 7 20 70 l0 70 65 0 c58 0 65 2
65 20 0 18 -7 20 -65 20 l-65 0 0 65 c0 58 -2 65 -20 65 -18 0 -20 -7 -20 -65z"/>
<path d="M5590 5087 c0 -20 -16 -23 -24 -4 -5 10 -7 10 -12 0 -3 -7 -12 -13
-19 -13 -7 0 -16 6 -18 13 -3 6 -6 -1 -6 -16 -1 -27 0 -28 46 -25 37 2 49 7
51 22 2 10 -1 23 -7 29 -8 8 -11 6 -11 -6z"/>
<path d="M1298 5083 c-23 -4 -28 -9 -28 -34 0 -28 2 -29 45 -29 43 0 45 1 45
29 0 17 -6 31 -16 35 -9 3 -16 5 -17 5 -1 -1 -14 -4 -29 -6z m3 -26 c-1 -12
-15 -9 -19 4 -3 6 1 10 8 8 6 -3 11 -8 11 -12z m39 -2 c0 -8 -4 -15 -10 -15
-5 0 -10 7 -10 15 0 8 5 15 10 15 6 0 10 -7 10 -15z"/>
<path d="M2838 4523 c5 -101 9 -111 11 -25 0 45 -2 82 -6 82 -5 0 -7 -26 -5
-57z"/>
<path d="M4101 4498 c2 -86 6 -76 11 25 2 31 0 57 -4 57 -5 0 -7 -37 -7 -82z"/>
<path d="M4102 4108 l-2 -308 198 0 c416 -1 577 1 584 8 4 4 -168 6 -382 4
l-390 -3 -3 303 -2 303 -3 -307z"/>
<path d="M5609 4261 c-4 -73 1 -136 10 -139 14 -5 15 134 1 143 -5 3 -10 1
-11 -4z"/>
<path d="M5517 3803 c-4 -3 -7 -22 -7 -40 l0 -34 48 3 c40 3 47 6 50 26 2 13
-2 30 -8 38 -13 14 -71 20 -83 7z m73 -28 c0 -11 -11 -15 -36 -15 -31 0 -35 2
-24 15 7 8 23 15 36 15 15 0 24 -6 24 -15z"/>
<path d="M2086 2987 c-16 -23 -12 -67 6 -67 5 0 6 -4 3 -10 -4 -6 6 -10 22
-10 24 0 29 4 30 28 1 15 -1 21 -4 15 -6 -15 -39 -17 -48 -3 -3 6 -3 20 0 31
5 16 12 19 31 15 26 -7 33 8 8 18 -25 10 -33 7 -48 -17z"/>
<path d="M4805 2986 c-14 -21 -14 -28 -4 -48 7 -13 12 -26 11 -30 -1 -5 12 -8
30 -8 17 0 28 3 25 7 -4 3 -2 12 4 19 6 8 6 14 0 18 -5 4 -12 2 -16 -4 -14
-22 -35 -10 -35 20 0 32 16 39 39 18 10 -11 12 -9 9 7 -5 30 -44 31 -63 1z"/>
<path d="M3450 2952 l-5 -52 38 0 c34 0 37 2 23 15 -8 8 -21 15 -30 15 -10 0
-16 12 -18 38 -3 33 -4 32 -8 -16z"/>
<path d="M4417 2899 c17 -17 151 -18 158 -1 3 9 -17 12 -82 12 -65 0 -84 -3
-76 -11z"/>
<path d="M2260 2761 c0 -22 3 -46 6 -55 8 -21 64 -22 64 -1 0 8 -9 15 -20 15
-17 0 -20 7 -20 40 0 29 -4 40 -15 40 -11 0 -15 -11 -15 -39z"/>
<path d="M2343 2785 c-11 -19 -4 -85 8 -85 5 0 9 11 9 23 0 13 3 27 7 31 4 3
7 15 8 26 2 24 -20 27 -32 5z"/>
<path d="M2105 2680 c-3 -5 3 -11 14 -11 12 -1 26 -2 33 -3 6 -1 13 5 16 12 5
15 -54 17 -63 2z"/>
<path d="M2480 2681 c0 -15 15 -21 38 -14 32 8 27 23 -8 23 -16 0 -30 -4 -30
-9z"/>
<path d="M6430 2671 c-28 -8 -39 -39 -19 -52 9 -5 10 -11 2 -21 -6 -7 -10 -31
-10 -53 2 -39 3 -40 40 -43 21 -2 37 1 37 7 0 6 -13 11 -30 11 -16 0 -30 5
-30 10 0 6 14 10 30 10 17 0 30 5 30 10 0 6 -14 10 -31 10 -39 0 -34 24 5 28
18 2 26 8 23 17 -3 7 -1 17 5 23 7 7 6 17 -1 31 -12 22 -13 23 -51 12z m30
-41 c-6 -11 -15 -20 -20 -20 -6 0 -5 9 2 20 7 11 16 20 21 20 4 0 3 -9 -3 -20z"/>
<path d="M6388 2473 c26 -5 33 -53 7 -53 -8 0 -15 -4 -15 -10 0 -5 23 -10 50
-10 28 0 50 5 50 10 0 6 -12 10 -26 10 -20 0 -25 4 -22 22 2 14 13 25 28 29
16 5 4 7 -35 7 -33 -1 -50 -3 -37 -5z"/>
<path d="M2127 2303 c-6 -10 -10 -50 -7 -88 1 -30 1 -30 11 -6 7 17 6 27 -2
32 -6 3 31 4 82 1 52 -2 96 -9 97 -13 2 -5 8 -7 13 -3 5 3 9 -5 10 -18 1 -18
3 -17 8 8 12 47 2 96 -18 92 -9 -2 -17 -15 -19 -31 -3 -27 -5 -27 -72 -27 -67
0 -69 1 -72 27 -3 26 -22 42 -31 26z"/>
<path d="M2486 2288 c-9 -34 -8 -35 22 -40 28 -4 29 -4 19 29 -12 38 -32 43
-41 11z"/>
<path d="M3208 2273 c-3 -21 -2 -49 2 -63 l7 -25 5 27 c3 15 1 29 -3 30 -5 2
81 3 190 3 110 0 194 -4 188 -8 -8 -6 -8 -7 2 -5 18 5 21 44 6 65 -16 21 -35
8 -35 -23 0 -24 -1 -25 -67 -22 -62 3 -68 5 -73 28 -8 34 -34 32 -38 -2 -3
-28 -5 -28 -72 -28 -67 0 -69 0 -72 27 -2 16 -10 29 -19 31 -13 2 -18 -7 -21
-35z"/>
<path d="M4297 2303 c-13 -21 -11 -67 3 -70 13 -4 13 -3 0 6 -11 8 -11 11 -2
11 7 0 15 -7 18 -15 4 -11 10 -12 18 -6 6 6 39 12 71 14 l60 3 -62 2 c-60 2
-62 3 -68 32 -6 28 -28 40 -38 23z"/>
<path d="M4478 2278 c-3 -18 -2 -42 3 -53 7 -17 8 -17 8 -2 1 10 9 17 20 17
16 0 17 5 12 32 -9 45 -37 49 -43 6z"/>
<path d="M4664 2296 c-3 -9 -4 -24 -2 -34 4 -15 -3 -17 -56 -16 l-61 1 55 -4
c30 -2 59 -8 65 -13 7 -6 18 -5 28 3 13 9 15 19 9 41 -9 34 -29 45 -38 22z"/>
<path d="M6490 2285 c0 -15 4 -24 10 -20 6 3 10 12 10 20 0 8 -4 17 -10 20 -6
4 -10 -5 -10 -20z"/>
<path d="M2388 2243 c18 -2 45 -2 60 0 15 2 0 4 -33 4 -33 0 -45 -2 -27 -4z"/>
<path d="M2075 2230 c-3 -5 -1 -10 4 -10 6 0 11 5 11 10 0 6 -2 10 -4 10 -3 0
-8 -4 -11 -10z"/>
<path d="M458 2224 c-11 -10 -10 -84 1 -84 5 0 11 6 13 13 6 19 -6 80 -14 71z"/>
<path d="M4502 2210 c0 -14 2 -19 5 -12 2 6 2 18 0 25 -3 6 -5 1 -5 -13z"/>
<path d="M4291 2204 c0 -11 3 -14 6 -6 3 7 2 16 -1 19 -3 4 -6 -2 -5 -13z"/>
<path d="M4691 2204 c0 -11 3 -14 6 -6 3 7 2 16 -1 19 -3 4 -6 -2 -5 -13z"/>
<path d="M2122 2145 c0 -16 2 -22 5 -12 2 9 2 23 0 30 -3 6 -5 -1 -5 -18z"/>
<path d="M2333 2135 c0 -22 2 -30 4 -17 2 12 2 30 0 40 -3 9 -5 -1 -4 -23z"/>
<path d="M3214 2085 c0 -49 1 -71 3 -48 2 23 2 64 0 90 -2 26 -3 8 -3 -42z"/>
<path d="M4293 2135 c0 -22 2 -30 4 -17 2 12 2 30 0 40 -3 9 -5 -1 -4 -23z"/>
<path d="M4693 2135 c0 -22 2 -30 4 -17 2 12 2 30 0 40 -3 9 -5 -1 -4 -23z"/>
<path d="M4501 2114 c0 -11 3 -14 6 -6 3 7 2 16 -1 19 -3 4 -6 -2 -5 -13z"/>
<path d="M730 2074 c0 -12 3 -14 13 -6 20 17 370 13 403 -4 21 -11 30 -12 38
-3 8 9 7 10 -6 6 -10 -4 -18 -3 -18 2 0 11 558 11 587 0 13 -5 25 -4 28 1 9
14 158 11 188 -5 19 -9 29 -10 33 -3 4 7 2 8 -4 4 -7 -4 -12 -2 -12 3 0 7 19
10 45 9 25 0 48 2 52 5 3 4 -298 7 -670 7 -618 0 -677 -1 -677 -16z"/>
<path d="M2570 2075 c0 -16 16 -20 24 -6 3 5 132 8 291 7 157 0 285 2 285 7 0
4 -135 7 -300 7 -260 0 -300 -2 -300 -15z"/>
<path d="M3653 2083 c4 -3 31 -5 61 -4 29 1 65 -3 79 -8 15 -6 29 -6 32 -1 3
5 100 8 215 8 115 -1 213 1 217 5 3 4 -132 7 -302 7 -170 0 -305 -3 -302 -7z"/>
<path d="M4743 2084 c4 -4 114 -8 244 -9 131 -1 252 -5 268 -9 20 -5 26 -4 16
2 -18 13 558 13 582 0 12 -6 23 -6 31 1 10 8 141 8 193 0 21 -4 15 -137 -6
-149 -14 -8 -14 -9 2 -10 16 0 17 -10 16 -92 -1 -54 -7 -96 -13 -100 -8 -5 -7
-8 2 -8 8 0 12 -21 12 -73 0 -45 -5 -78 -12 -86 -10 -11 -10 -13 0 -7 8 5 12
0 12 -13 0 -12 -6 -21 -12 -21 -10 0 -10 -2 -1 -8 9 -6 12 -61 12 -205 -1
-172 -3 -198 -17 -207 -15 -8 -15 -9 1 -10 16 0 18 -8 16 -80 l-3 -81 -328 3
c-212 2 -327 0 -325 -7 2 -6 67 -9 167 -8 98 1 158 -2 149 -8 -8 -5 -30 -9
-49 -10 l-35 -2 35 -6 c22 -4 40 -2 48 6 16 15 17 15 200 17 78 1 142 -2 142
-6 0 -5 -6 -8 -12 -8 -9 0 -10 -3 -2 -8 16 -10 18 -131 2 -150 -8 -9 -8 -13
-2 -9 9 5 12 -21 13 -93 1 -89 -1 -100 -18 -110 -25 -13 -68 -13 -76 0 -3 6
-10 10 -16 10 -14 0 -11 -26 6 -40 9 -7 15 -8 15 -2 0 5 20 12 44 13 l43 4 2
-52 1 -52 -2345 -1 -2345 0 -1 28 -1 27 -10 -27 -10 -28 -103 0 c-79 0 -105 3
-115 15 -7 8 -20 15 -29 14 -11 0 -9 -3 7 -9 12 -5 22 -12 22 -14 0 -3 -95 -5
-210 -4 -116 0 -213 -2 -217 -6 -3 -3 143 -6 325 -6 l332 0 0 -139 0 -139 43
-4 c23 -2 43 -1 45 4 5 11 3859 11 3864 0 2 -5 22 -6 46 -4 181 18 -175 22
-1973 22 l-2015 0 0 130 0 130 2350 0 2350 0 0 845 0 845 203 3 c111 1 -196 3
-682 5 -486 1 -881 -1 -878 -4z"/>
<path d="M965 2060 c3 -5 8 -10 11 -10 2 0 4 5 4 10 0 6 -5 10 -11 10 -5 0 -7
-4 -4 -10z"/>
<path d="M1365 2060 c-3 -5 -2 -10 4 -10 5 0 13 5 16 10 3 6 2 10 -4 10 -5 0
-13 -4 -16 -10z"/>
<path d="M2333 2035 c0 -22 2 -30 4 -17 2 12 2 30 0 40 -3 9 -5 -1 -4 -23z"/>
<path d="M2600 2059 c0 -5 5 -7 10 -4 6 3 10 8 10 11 0 2 -4 4 -10 4 -5 0 -10
-5 -10 -11z"/>
<path d="M3651 2054 c0 -11 3 -14 6 -6 3 7 2 16 -1 19 -3 4 -6 -2 -5 -13z"/>
<path d="M3837 2054 c3 -9 9 -12 12 -7 3 4 10 11 15 16 5 4 0 7 -12 7 -15 0
-20 -4 -15 -16z"/>
<path d="M4035 2060 c-3 -5 -1 -10 4 -10 6 0 11 5 11 10 0 6 -2 10 -4 10 -3 0
-8 -4 -11 -10z"/>
<path d="M4293 2035 c0 -22 2 -30 4 -17 2 12 2 30 0 40 -3 9 -5 -1 -4 -23z"/>
<path d="M4503 2035 c0 -22 2 -30 4 -17 2 12 2 30 0 40 -3 9 -5 -1 -4 -23z"/>
<path d="M4693 2035 c0 -22 2 -30 4 -17 2 12 2 30 0 40 -3 9 -5 -1 -4 -23z"/>
<path d="M5465 2060 c-3 -5 -2 -10 4 -10 5 0 13 5 16 10 3 6 2 10 -4 10 -5 0
-13 -4 -16 -10z"/>
<path d="M5890 2060 c0 -5 7 -7 15 -4 8 4 15 8 15 10 0 2 -7 4 -15 4 -8 0 -15
-4 -15 -10z"/>
<path d="M6488 2030 c-4 -23 -1 -30 12 -30 13 0 16 7 12 30 -2 17 -8 30 -12
30 -4 0 -10 -13 -12 -30z"/>
<path d="M1050 1997 c4 -41 5 -41 8 -8 2 18 0 37 -5 42 -5 5 -6 -11 -3 -34z"/>
<path d="M1171 2024 c0 -11 3 -14 6 -6 3 7 2 16 -1 19 -3 4 -6 -2 -5 -13z"/>
<path d="M1658 2014 c2 -13 8 -21 13 -18 14 8 11 31 -4 37 -10 4 -13 -2 -9
-19z"/>
<path d="M3098 2013 c5 -21 7 -23 10 -9 2 10 0 22 -6 28 -6 6 -7 0 -4 -19z"/>
<path d="M4041 2024 c0 -11 3 -14 6 -6 3 7 2 16 -1 19 -3 4 -6 -2 -5 -13z"/>
<path d="M845 2020 c-3 -5 -3 -11 2 -11 4 -1 -8 -5 -27 -9 l-35 -8 34 1 c24 2
35 7 37 20 3 19 -2 22 -11 7z"/>
<path d="M1460 2016 c0 -8 -12 -17 -27 -19 l-28 -4 27 -2 c16 0 28 -8 31 -18
3 -10 5 -1 6 20 0 20 -1 37 -4 37 -3 0 -5 -6 -5 -14z"/>
<path d="M1872 2000 c0 -19 2 -27 5 -17 2 9 2 25 0 35 -3 9 -5 1 -5 -18z"/>
<path d="M2121 2014 c0 -11 3 -14 6 -6 3 7 2 16 -1 19 -3 4 -6 -2 -5 -13z"/>
<path d="M2693 1995 c0 -22 2 -30 4 -17 2 12 2 30 0 40 -3 9 -5 -1 -4 -23z"/>
<path d="M3710 2009 c0 -11 4 -18 10 -14 5 3 7 12 3 20 -7 21 -13 19 -13 -6z"/>
<path d="M4120 2002 c0 -17 4 -33 9 -36 10 -6 8 51 -3 61 -3 3 -6 -8 -6 -25z"/>
<path d="M4737 2023 c-9 -9 -9 -53 1 -53 4 0 7 14 7 30 0 17 0 30 -1 30 0 0
-4 -3 -7 -7z"/>
<path d="M4940 2016 c0 -8 -12 -16 -27 -19 l-28 -4 28 -2 c18 -1 27 -7 27 -18
0 -24 13 -7 16 22 1 13 -2 27 -7 30 -5 4 -9 -1 -9 -9z"/>
<path d="M5563 2011 c0 -11 5 -17 9 -15 11 7 10 34 -1 34 -6 0 -9 -9 -8 -19z"/>
<path d="M5773 1995 c0 -22 2 -30 4 -17 2 12 2 30 0 40 -3 9 -5 -1 -4 -23z"/>
<path d="M2890 2011 c0 -5 -12 -12 -27 -14 -27 -4 -26 -4 4 -6 32 -1 52 13 33
24 -5 3 -10 2 -10 -4z"/>
<path d="M5143 2005 c0 -8 4 -15 9 -15 4 0 8 7 8 15 0 8 -4 15 -8 15 -5 0 -9
-7 -9 -15z"/>
<path d="M5971 2004 c0 -11 3 -14 6 -6 3 7 2 16 -1 19 -3 4 -6 -2 -5 -13z"/>
<path d="M2018 1998 c6 -6 18 -8 28 -6 14 3 12 5 -9 10 -19 3 -25 2 -19 -4z"/>
<path d="M4068 1998 c6 -6 18 -8 28 -6 14 3 12 5 -9 10 -19 3 -25 2 -19 -4z"/>
<path d="M4237 1991 c-3 -13 -1 -18 9 -14 7 2 10 11 7 19 -7 19 -10 18 -16 -5z"/>
<path d="M1003 1993 c9 -2 23 -2 30 0 6 3 -1 5 -18 5 -16 0 -22 -2 -12 -5z"/>
<path d="M1157 1981 c-4 -17 -3 -21 5 -13 5 5 8 16 6 23 -3 8 -7 3 -11 -10z"/>
<path d="M1208 1993 c6 -2 18 -2 25 0 6 3 1 5 -13 5 -14 0 -19 -2 -12 -5z"/>
<path d="M1618 1993 c6 -2 18 -2 25 0 6 3 1 5 -13 5 -14 0 -19 -2 -12 -5z"/>
<path d="M1823 1993 c9 -2 23 -2 30 0 6 3 -1 5 -18 5 -16 0 -22 -2 -12 -5z"/>
<path d="M1981 1984 c0 -11 3 -14 6 -6 3 7 2 16 -1 19 -3 4 -6 -2 -5 -13z"/>
<path d="M2630 1996 c0 -2 11 -6 25 -8 14 -3 25 -1 25 3 0 5 -11 9 -25 9 -14
0 -25 -2 -25 -4z"/>
<path d="M3053 1993 c9 -2 23 -2 30 0 6 3 -1 5 -18 5 -16 0 -22 -2 -12 -5z"/>
<path d="M3663 1993 c9 -2 23 -2 30 0 6 3 -1 5 -18 5 -16 0 -22 -2 -12 -5z"/>
<path d="M3873 1993 c9 -2 25 -2 35 0 9 3 1 5 -18 5 -19 0 -27 -2 -17 -5z"/>
<path d="M4846 1983 c-6 -14 -5 -15 5 -6 7 7 10 15 7 18 -3 3 -9 -2 -12 -12z"/>
<path d="M5098 1993 c6 -2 18 -2 25 0 6 3 1 5 -13 5 -14 0 -19 -2 -12 -5z"/>
<path d="M5303 1993 c9 -2 23 -2 30 0 6 3 -1 5 -18 5 -16 0 -22 -2 -12 -5z"/>
<path d="M5518 1993 c6 -2 18 -2 25 0 6 3 1 5 -13 5 -14 0 -19 -2 -12 -5z"/>
<path d="M5728 1993 c6 -2 18 -2 25 0 6 3 1 5 -13 5 -14 0 -19 -2 -12 -5z"/>
<path d="M5928 1993 c6 -2 18 -2 25 0 6 3 1 5 -13 5 -14 0 -19 -2 -12 -5z"/>
<path d="M748 1979 c-10 -5 -18 -18 -17 -27 0 -14 2 -14 6 -2 4 8 13 20 22 27
19 15 13 16 -11 2z"/>
<path d="M5669 1973 c-13 -16 -12 -17 4 -4 16 13 21 21 13 21 -2 0 -10 -8 -17
-17z"/>
<path d="M2333 1940 c0 -25 2 -35 4 -22 2 12 2 32 0 45 -2 12 -4 2 -4 -23z"/>
<path d="M3214 1860 c0 -69 1 -97 3 -62 2 34 2 90 0 125 -2 34 -3 6 -3 -63z"/>
<path d="M4293 1940 c0 -25 2 -35 4 -22 2 12 2 32 0 45 -2 12 -4 2 -4 -23z"/>
<path d="M4693 1940 c0 -25 2 -35 4 -22 2 12 2 32 0 45 -2 12 -4 2 -4 -23z"/>
<path d="M2122 1945 c0 -16 2 -22 5 -12 2 9 2 23 0 30 -3 6 -5 -1 -5 -18z"/>
<path d="M3930 1954 c0 -6 -12 -15 -27 -21 -27 -11 -27 -11 7 -6 43 7 47 10
32 25 -7 7 -12 8 -12 2z"/>
<path d="M4746 1945 c-3 -8 -1 -15 4 -15 13 0 22 18 11 24 -5 3 -11 -1 -15 -9z"/>
<path d="M5360 1951 c0 -6 -6 -11 -14 -11 -8 0 -17 -4 -20 -8 -3 -5 8 -6 25
-4 29 4 37 16 19 27 -5 3 -10 1 -10 -4z"/>
<path d="M860 1939 c0 -5 5 -7 10 -4 6 3 10 8 10 11 0 2 -4 4 -10 4 -5 0 -10
-5 -10 -11z"/>
<path d="M1060 1940 c0 -5 5 -10 10 -10 6 0 10 5 10 10 0 6 -4 10 -10 10 -5 0
-10 -4 -10 -10z"/>
<path d="M1265 1940 c-3 -5 -1 -10 4 -10 6 0 11 5 11 10 0 6 -2 10 -4 10 -3 0
-8 -4 -11 -10z"/>
<path d="M1470 1940 c-9 -6 -10 -10 -3 -10 6 0 15 5 18 10 8 12 4 12 -15 0z"/>
<path d="M1675 1940 c-3 -5 -2 -10 4 -10 5 0 13 5 16 10 3 6 2 10 -4 10 -5 0
-13 -4 -16 -10z"/>
<path d="M1880 1940 c0 -5 5 -10 10 -10 6 0 10 5 10 10 0 6 -4 10 -10 10 -5 0
-10 -4 -10 -10z"/>
<path d="M2695 1943 c-31 -7 -40 -21 -11 -16 15 3 29 9 32 14 3 5 4 8 2 8 -2
-1 -12 -3 -23 -6z"/>
<path d="M3093 1943 c-13 -2 -23 -8 -23 -12 0 -11 49 -1 56 10 3 5 2 8 -3 8
-4 -1 -18 -4 -30 -6z"/>
<path d="M3701 1939 c-18 -6 -32 -12 -30 -13 8 -7 69 7 69 15 0 5 -1 9 -2 8
-2 0 -18 -5 -37 -10z"/>
<path d="M4125 1943 c-34 -8 -38 -20 -5 -15 16 2 30 8 30 13 0 5 -1 8 -2 8 -2
-1 -12 -3 -23 -6z"/>
<path d="M5155 1940 c-3 -5 -1 -10 4 -10 6 0 11 5 11 10 0 6 -2 10 -4 10 -3 0
-8 -4 -11 -10z"/>
<path d="M5985 1940 c-3 -5 -1 -10 4 -10 6 0 11 5 11 10 0 6 -2 10 -4 10 -3 0
-8 -4 -11 -10z"/>
<path d="M815 1930 c-3 -5 -2 -10 4 -10 5 0 13 5 16 10 3 6 2 10 -4 10 -5 0
-13 -4 -16 -10z"/>
<path d="M1230 1930 c-9 -6 -10 -10 -3 -10 6 0 15 5 18 10 8 12 4 12 -15 0z"/>
<path d="M1635 1930 c-3 -6 1 -7 9 -4 18 7 21 14 7 14 -6 0 -13 -4 -16 -10z"/>
<path d="M1845 1930 c-3 -6 1 -7 9 -4 18 7 21 14 7 14 -6 0 -13 -4 -16 -10z"/>
<path d="M2046 1931 c-4 -5 3 -7 14 -4 23 6 26 13 6 13 -8 0 -17 -4 -20 -9z"/>
<path d="M2584 1933 c3 -6 0 -14 -6 -16 -7 -3 -3 -6 10 -6 13 -1 32 -6 42 -11
16 -8 18 -8 14 5 -4 8 -14 15 -23 15 -9 0 -23 6 -30 13 -9 8 -12 8 -7 0z"/>
<path d="M2860 1930 c-13 -9 -13 -10 0 -9 8 1 26 5 40 9 l25 8 -25 1 c-14 0
-32 -4 -40 -9z"/>
<path d="M4910 1930 c-11 -7 -5 -8 20 -4 43 8 51 14 19 14 -13 0 -31 -5 -39
-10z"/>
<path d="M5115 1930 c-3 -5 -2 -10 4 -10 5 0 13 5 16 10 3 6 2 10 -4 10 -5 0
-13 -4 -16 -10z"/>
<path d="M5536 1932 c-3 -5 8 -6 25 -4 16 2 29 6 29 8 0 8 -49 4 -54 -4z"/>
<path d="M5735 1930 c-4 -7 3 -8 22 -4 38 9 42 14 10 14 -14 0 -29 -5 -32 -10z"/>
<path d="M5945 1930 c-3 -5 -2 -10 4 -10 5 0 13 5 16 10 3 6 2 10 -4 10 -5 0
-13 -4 -16 -10z"/>
<path d="M944 1918 c-3 -4 4 -8 15 -8 10 0 26 -3 35 -6 9 -3 16 -2 16 4 0 12
-59 22 -66 10z"/>
<path d="M1144 1919 c-3 -5 6 -9 20 -9 14 0 28 -4 31 -10 9 -14 27 -12 23 2
-5 15 -66 29 -74 17z"/>
<path d="M1355 1920 c-3 -4 9 -10 25 -12 17 -3 30 -1 30 3 0 10 -50 18 -55 9z"/>
<path d="M1555 1919 c-3 -4 9 -9 26 -11 16 -3 32 -1 34 3 3 4 -9 9 -26 11 -16
3 -32 1 -34 -3z"/>
<path d="M1758 1918 c-8 -5 -2 -8 18 -8 16 0 35 -5 42 -12 9 -9 12 -8 12 4 0
18 -52 30 -72 16z"/>
<path d="M1958 1919 c-11 -7 26 -12 58 -8 4 0 11 -5 16 -13 8 -10 9 -10 6 2
-5 17 -61 31 -80 19z"/>
<path d="M2995 1920 c-3 -4 9 -10 25 -12 17 -3 30 -1 30 3 0 10 -50 18 -55 9z"/>
<path d="M3651 1914 c0 -11 3 -14 6 -6 3 7 2 16 -1 19 -3 4 -6 -2 -5 -13z"/>
<path d="M3808 1919 c-9 -6 -3 -9 18 -9 16 0 36 -6 43 -12 10 -11 11 -10 6 3
-7 19 -48 30 -67 18z"/>
<path d="M4008 1919 c-9 -6 -3 -9 18 -9 16 0 36 -6 43 -12 10 -11 11 -10 6 3
-7 19 -48 30 -67 18z"/>
<path d="M5034 1918 c-3 -4 11 -8 30 -8 20 0 36 2 36 4 0 8 -61 12 -66 4z"/>
<path d="M5239 1919 c-6 -3 5 -8 25 -11 21 -2 39 -1 42 3 5 9 -53 17 -67 8z"/>
<path d="M5434 1919 c-14 -6 -9 -8 17 -8 19 -1 40 -6 47 -13 9 -9 12 -8 12 4
0 18 -47 28 -76 17z"/>
<path d="M5865 1921 c-3 -7 3 -11 15 -11 12 0 30 -5 40 -10 16 -8 18 -8 14 5
-4 8 -12 15 -19 15 -7 0 -20 3 -28 6 -8 3 -18 1 -22 -5z"/>
<path d="M730 1916 c0 -2 14 -6 30 -8 17 -3 30 -1 30 4 0 4 -13 8 -30 8 -16 0
-30 -2 -30 -4z"/>
<path d="M2780 1916 c0 -2 14 -6 30 -8 17 -3 30 -1 30 4 0 4 -13 8 -30 8 -16
0 -30 -2 -30 -4z"/>
<path d="M4223 1913 c9 -2 23 -2 30 0 6 3 -1 5 -18 5 -16 0 -22 -2 -12 -5z"/>
<path d="M4830 1916 c0 -2 14 -6 30 -8 17 -3 30 -1 30 4 0 4 -13 8 -30 8 -16
0 -30 -2 -30 -4z"/>
<path d="M5390 1911 c0 -5 5 -13 10 -16 6 -3 10 -2 10 4 0 5 -4 13 -10 16 -5
3 -10 2 -10 -4z"/>
<path d="M5650 1916 c0 -2 16 -6 35 -8 19 -2 35 0 35 4 0 4 -16 8 -35 8 -19 0
-35 -2 -35 -4z"/>
<path d="M3140 1888 c0 -19 2 -20 10 -8 13 19 13 30 0 30 -5 0 -10 -10 -10
-22z"/>
<path d="M910 1870 c-12 -8 -11 -10 8 -10 12 0 22 5 22 10 0 13 -11 13 -30 0z"/>
<path d="M1120 1870 c-12 -8 -10 -10 8 -10 13 0 20 4 17 10 -7 12 -6 12 -25 0z"/>
<path d="M1325 1870 c-3 -5 1 -10 10 -10 9 0 13 5 10 10 -3 6 -8 10 -10 10 -2
0 -7 -4 -10 -10z"/>
<path d="M1530 1870 c-12 -7 -10 -9 7 -7 12 0 19 5 17 9 -6 10 -6 10 -24 -2z"/>
<path d="M1735 1870 c-4 -6 3 -10 14 -10 25 0 27 6 6 13 -8 4 -17 2 -20 -3z"/>
<path d="M2333 1810 c0 -41 2 -58 4 -37 2 20 2 54 0 75 -2 20 -4 3 -4 -38z"/>
<path d="M2755 1870 c-4 -6 3 -10 14 -10 25 0 27 6 6 13 -8 4 -17 2 -20 -3z"/>
<path d="M2965 1870 c-3 -5 1 -10 10 -10 9 0 13 5 10 10 -3 6 -8 10 -10 10 -2
0 -7 -4 -10 -10z"/>
<path d="M3775 1870 c-4 -6 6 -10 22 -10 22 0 25 2 13 10 -19 12 -27 12 -35 0z"/>
<path d="M3969 1867 c5 -5 19 -7 32 -5 20 3 19 5 -9 9 -20 3 -29 2 -23 -4z"/>
<path d="M4293 1810 c0 -41 2 -58 4 -37 2 20 2 54 0 75 -2 20 -4 3 -4 -38z"/>
<path d="M4693 1810 c0 -41 2 -58 4 -37 2 20 2 54 0 75 -2 20 -4 3 -4 -38z"/>
<path d="M4786 1869 c3 -5 17 -9 31 -9 32 0 24 11 -11 14 -14 2 -23 -1 -20 -5z"/>
<path d="M5010 1870 c-12 -8 -10 -10 8 -10 13 0 20 4 17 10 -7 12 -6 12 -25 0z"/>
<path d="M5215 1870 c-4 -6 3 -10 14 -10 25 0 27 6 6 13 -8 4 -17 2 -20 -3z"/>
<path d="M5420 1870 c-12 -8 -10 -10 8 -10 13 0 20 4 17 10 -7 12 -6 12 -25 0z"/>
<path d="M5635 1870 c-3 -5 1 -10 10 -10 9 0 13 5 10 10 -3 6 -8 10 -10 10 -2
0 -7 -4 -10 -10z"/>
<path d="M5835 1870 c-4 -6 6 -10 22 -10 22 0 25 2 13 10 -19 12 -27 12 -35 0z"/>
<path d="M6039 1869 c-10 -6 -7 -9 14 -9 29 0 35 5 14 13 -8 3 -20 1 -28 -4z"/>
<path d="M1938 1863 c6 -2 18 -2 25 0 6 3 1 5 -13 5 -14 0 -19 -2 -12 -5z"/>
<path d="M2123 1810 c0 -36 2 -50 4 -32 2 17 2 47 0 65 -2 17 -4 3 -4 -33z"/>
<path d="M4188 1863 c6 -2 18 -2 25 0 6 3 1 5 -13 5 -14 0 -19 -2 -12 -5z"/>
<path d="M4503 1810 c0 -36 2 -50 4 -32 2 17 2 47 0 65 -2 17 -4 3 -4 -33z"/>
<path d="M790 1850 c0 -5 5 -10 11 -10 5 0 7 5 4 10 -3 6 -8 10 -11 10 -2 0
-4 -4 -4 -10z"/>
<path d="M1610 1850 c0 -5 5 -10 11 -10 5 0 7 5 4 10 -3 6 -8 10 -11 10 -2 0
-4 -4 -4 -10z"/>
<path d="M3040 1850 c0 -5 5 -10 11 -10 5 0 7 5 4 10 -3 6 -8 10 -11 10 -2 0
-4 -4 -4 -10z"/>
<path d="M5300 1850 c0 -5 5 -10 11 -10 5 0 7 5 4 10 -3 6 -8 10 -11 10 -2 0
-4 -4 -4 -10z"/>
<path d="M5920 1850 c0 -5 5 -10 11 -10 5 0 7 5 4 10 -3 6 -8 10 -11 10 -2 0
-4 -4 -4 -10z"/>
<path d="M340 1837 c0 -10 7 -20 15 -23 14 -6 14 -8 -1 -19 -15 -11 -15 -12 5
-18 28 -7 29 -47 1 -47 -11 0 -20 -4 -20 -10 0 -5 23 -10 50 -10 28 0 50 5 50
10 0 6 -12 10 -26 10 -20 0 -25 4 -22 22 2 14 12 25 28 29 26 6 19 13 -25 22
-12 3 -7 5 13 6 17 0 32 6 32 11 0 9 -48 16 -74 11 -5 -1 -13 4 -17 11 -7 10
-9 8 -9 -5z"/>
<path d="M1398 1843 c7 -3 16 -2 19 1 4 3 -2 6 -13 5 -11 0 -14 -3 -6 -6z"/>
<path d="M5495 1840 c-3 -6 1 -7 9 -4 18 7 21 14 7 14 -6 0 -13 -4 -16 -10z"/>
<path d="M1042 1826 c7 -8 15 -12 17 -11 5 6 -10 25 -20 25 -5 0 -4 -6 3 -14z"/>
<path d="M3698 1833 c6 -2 12 -13 12 -24 0 -15 -5 -17 -30 -12 -19 3 -30 1
-30 -6 0 -6 13 -11 29 -11 16 0 31 -6 33 -12 3 -7 7 -3 10 8 7 26 -8 64 -24
63 -10 0 -10 -2 0 -6z"/>
<path d="M765 1820 c3 -5 8 -10 11 -10 2 0 4 5 4 10 0 6 -5 10 -11 10 -5 0 -7
-4 -4 -10z"/>
<path d="M1585 1820 c3 -5 8 -10 11 -10 2 0 4 5 4 10 0 6 -5 10 -11 10 -5 0
-7 -4 -4 -10z"/>
<path d="M4037 1809 c-4 -16 -3 -18 9 -8 7 6 11 15 8 20 -8 13 -11 11 -17 -12z"/>
<path d="M4737 1823 c-11 -10 -8 -51 4 -58 6 -4 8 -13 5 -21 -6 -16 -4 -17 17
-8 13 5 12 9 -5 26 -14 14 -18 27 -14 44 7 25 4 29 -7 17z"/>
<path d="M5563 1810 c-4 -15 -11 -18 -34 -13 -18 3 -29 1 -29 -6 0 -6 15 -11
34 -11 19 0 36 -5 38 -11 2 -7 4 5 5 25 1 39 -6 48 -14 16z"/>
<path d="M1459 1813 c-1 -5 -1 -11 0 -15 0 -4 -13 -5 -29 -1 -19 3 -30 1 -30
-6 0 -6 13 -11 29 -11 16 0 32 -6 34 -12 3 -7 6 2 6 20 1 28 -7 46 -10 25z"/>
<path d="M1660 1805 c0 -11 -7 -14 -25 -9 -15 4 -25 2 -25 -5 0 -6 11 -11 25
-11 14 0 25 -4 25 -10 0 -5 3 -10 8 -10 4 0 7 14 7 30 0 17 -3 30 -7 30 -5 0
-8 -7 -8 -15z"/>
<path d="M2067 1800 c-3 -11 -1 -20 4 -20 5 0 9 9 9 20 0 11 -2 20 -4 20 -2 0
-6 -9 -9 -20z"/>
<path d="M2690 1804 c0 -12 -7 -14 -30 -9 -19 4 -30 3 -30 -4 0 -6 13 -11 29
-11 16 0 32 -6 34 -12 3 -7 6 2 6 20 1 17 -1 32 -4 32 -3 0 -5 -7 -5 -16z"/>
<path d="M2890 1805 c0 -11 -8 -13 -32 -8 -22 4 -29 3 -24 -5 4 -7 17 -12 30
-12 12 0 28 -6 34 -12 10 -10 12 -6 10 20 -2 31 -18 47 -18 17z"/>
<path d="M4117 1800 c-3 -10 1 -24 7 -29 10 -8 13 -3 13 19 0 34 -12 40 -20
10z"/>
<path d="M4940 1805 c0 -11 -8 -13 -32 -8 -22 4 -29 3 -24 -5 4 -7 18 -12 32
-12 13 0 24 -6 24 -12 0 -20 20 14 20 35 0 9 -4 17 -10 17 -5 0 -10 -7 -10
-15z"/>
<path d="M5144 1804 c5 -13 1 -14 -24 -9 -19 4 -30 3 -30 -4 0 -6 11 -11 25
-11 14 0 25 -4 25 -10 0 -5 5 -10 10 -10 6 0 10 14 10 30 0 17 -5 30 -11 30
-6 0 -8 -7 -5 -16z"/>
<path d="M5470 1809 c0 -5 5 -7 10 -4 6 3 10 8 10 11 0 2 -4 4 -10 4 -5 0 -10
-5 -10 -11z"/>
<path d="M5770 1805 c0 -11 -8 -13 -30 -8 -19 3 -30 1 -30 -6 0 -6 13 -11 29
-11 16 0 32 -6 34 -12 3 -7 6 2 6 20 1 17 -1 32 -4 32 -3 0 -5 -7 -5 -15z"/>
<path d="M4232 1782 c-11 -25 -11 -25 4 -10 9 9 15 21 13 27 -2 6 -10 -2 -17
-17z"/>
<path d="M790 1789 c0 -5 13 -9 29 -9 16 0 31 -6 34 -12 3 -7 5 -4 4 7 -1 15
-9 20 -34 22 -18 1 -33 -3 -33 -8z"/>
<path d="M990 1790 c0 -6 13 -10 29 -10 20 0 31 -6 34 -17 3 -12 5 -10 6 7 1
22 -4 25 -34 27 -19 2 -35 -2 -35 -7z"/>
<path d="M1200 1790 c0 -6 14 -10 30 -10 39 0 39 14 0 17 -17 1 -30 -2 -30 -7z"/>
<path d="M1810 1789 c0 -5 13 -9 29 -9 16 0 32 -6 34 -12 3 -7 6 -4 6 7 1 16
-6 20 -34 22 -19 1 -35 -3 -35 -8z"/>
<path d="M2020 1790 c0 -5 7 -10 15 -10 8 0 15 5 15 10 0 6 -7 10 -15 10 -8 0
-15 -4 -15 -10z"/>
<path d="M3040 1790 c0 -5 12 -10 26 -10 14 0 23 4 19 10 -3 6 -15 10 -26 10
-10 0 -19 -4 -19 -10z"/>
<path d="M3102 1780 c0 -14 2 -19 5 -12 2 6 2 18 0 25 -3 6 -5 1 -5 -13z"/>
<path d="M3860 1790 c0 -5 15 -10 33 -9 27 0 29 2 12 9 -28 12 -45 12 -45 0z"/>
<path d="M4065 1790 c3 -5 13 -10 21 -10 8 0 14 5 14 10 0 6 -9 10 -21 10 -11
0 -17 -4 -14 -10z"/>
<path d="M5290 1790 c0 -5 17 -10 38 -9 30 0 33 2 17 9 -28 12 -55 12 -55 0z"/>
<path d="M5910 1790 c0 -6 14 -10 30 -10 17 0 30 -4 30 -10 0 -5 4 -10 9 -10
5 0 7 8 5 18 -5 18 -74 30 -74 12z"/>
<path d="M1156 1773 c-6 -14 -5 -15 5 -6 7 7 10 15 7 18 -3 3 -9 -2 -12 -12z"/>
<path d="M1365 1779 c-4 -6 -5 -12 -2 -15 2 -3 7 2 10 11 7 17 1 20 -8 4z"/>
<path d="M1976 1773 c-6 -14 -5 -15 5 -6 7 7 10 15 7 18 -3 3 -9 -2 -12 -12z"/>
<path d="M2796 1773 c-6 -14 -5 -15 5 -6 7 7 10 15 7 18 -3 3 -9 -2 -12 -12z"/>
<path d="M4847 1783 c-4 -3 -7 -11 -7 -17 0 -6 5 -5 12 2 6 6 9 14 7 17 -3 3
-9 2 -12 -2z"/>
<path d="M5456 1773 c-6 -14 -5 -15 5 -6 7 7 10 15 7 18 -3 3 -9 -2 -12 -12z"/>
<path d="M5677 1783 c-4 -3 -7 -11 -7 -17 0 -6 5 -5 12 2 6 6 9 14 7 17 -3 3
-9 2 -12 -2z"/>
<path d="M742 1771 c-8 -5 -12 -16 -10 -25 2 -12 6 -10 15 9 6 14 10 25 10 25
-1 0 -8 -4 -15 -9z"/>
<path d="M5045 1770 c-3 -5 -1 -10 4 -10 6 0 11 5 11 10 0 6 -2 10 -4 10 -3 0
-8 -4 -11 -10z"/>
<path d="M6407 1773 c-11 -10 -8 -41 5 -49 6 -4 19 2 29 14 9 12 20 22 24 22
4 0 2 -7 -5 -15 -7 -9 -10 -19 -6 -23 11 -10 36 27 29 44 -5 14 -64 20 -76 7z
m23 -13 c0 -5 -5 -10 -11 -10 -5 0 -7 5 -4 10 3 6 8 10 11 10 2 0 4 -4 4 -10z"/>
<path d="M5360 1744 c0 -16 9 -18 28 -5 10 6 9 10 -7 14 -14 3 -21 0 -21 -9z"/>
<path d="M865 1740 c4 -6 11 -8 16 -5 14 9 11 15 -7 15 -8 0 -12 -5 -9 -10z"/>
<path d="M1065 1740 c-8 -13 5 -13 25 0 13 8 13 10 -2 10 -9 0 -20 -4 -23 -10z"/>
<path d="M1265 1740 c-8 -13 5 -13 25 0 13 8 13 10 -2 10 -9 0 -20 -4 -23 -10z"/>
<path d="M1480 1740 c0 -5 7 -7 15 -4 8 4 15 8 15 10 0 2 -7 4 -15 4 -8 0 -15
-4 -15 -10z"/>
<path d="M1680 1740 c0 -13 11 -13 30 0 12 8 11 10 -7 10 -13 0 -23 -4 -23
-10z"/>
<path d="M1885 1740 c-8 -13 5 -13 25 0 13 8 13 10 -2 10 -9 0 -20 -4 -23 -10z"/>
<path d="M2071 1734 c0 -11 3 -14 6 -6 3 7 2 16 -1 19 -3 4 -6 -2 -5 -13z"/>
<path d="M2705 1740 c-3 -6 1 -7 9 -4 18 7 21 14 7 14 -6 0 -13 -4 -16 -10z"/>
<path d="M2918 1743 c6 -2 18 -2 25 0 6 3 1 5 -13 5 -14 0 -19 -2 -12 -5z"/>
<path d="M3110 1740 c0 -13 11 -13 30 0 12 8 11 10 -7 10 -13 0 -23 -4 -23
-10z"/>
<path d="M3730 1741 c0 -5 9 -7 20 -4 11 3 20 7 20 9 0 2 -9 4 -20 4 -11 0
-20 -4 -20 -9z"/>
<path d="M3930 1740 c0 -5 4 -10 9 -10 6 0 13 5 16 10 3 6 -1 10 -9 10 -9 0
-16 -4 -16 -10z"/>
<path d="M4135 1740 c-3 -5 -2 -10 4 -10 5 0 13 5 16 10 3 6 2 10 -4 10 -5 0
-13 -4 -16 -10z"/>
<path d="M4968 1743 c7 -3 16 -2 19 1 4 3 -2 6 -13 5 -11 0 -14 -3 -6 -6z"/>
<path d="M5160 1740 c0 -13 11 -13 30 0 12 8 11 10 -7 10 -13 0 -23 -4 -23
-10z"/>
<path d="M5598 1743 c7 -3 16 -2 19 1 4 3 -2 6 -13 5 -11 0 -14 -3 -6 -6z"/>
<path d="M5798 1743 c7 -3 16 -2 19 1 4 3 -2 6 -13 5 -11 0 -14 -3 -6 -6z"/>
<path d="M5990 1740 c0 -5 7 -7 15 -4 8 4 15 8 15 10 0 2 -7 4 -15 4 -8 0 -15
-4 -15 -10z"/>
<path d="M1030 1730 c-8 -5 -31 -10 -50 -11 -22 -1 -27 -3 -15 -6 11 -3 26
-10 34 -17 12 -8 13 -8 7 2 -4 6 -3 12 1 12 5 0 18 7 29 15 21 16 17 20 -6 5z"/>
<path d="M1856 1733 c-3 -4 -25 -10 -49 -14 l-42 -6 36 -2 c19 0 44 6 55 14
10 8 16 15 13 15 -3 0 -9 -3 -13 -7z"/>
<path d="M2670 1730 c-8 -5 -31 -10 -50 -11 l-35 -1 34 -8 c27 -6 38 -4 54 11
22 21 21 24 -3 9z"/>
<path d="M2880 1730 c-8 -5 -33 -10 -55 -11 -34 -1 -36 -2 -15 -8 26 -8 76 4
86 20 7 11 3 11 -16 -1z"/>
<path d="M5130 1730 c-8 -5 -33 -10 -55 -11 -22 -1 -31 -4 -20 -6 11 -3 26
-10 34 -17 12 -8 13 -8 7 2 -4 7 -2 12 6 12 8 0 23 7 34 15 21 16 17 20 -6 5z"/>
<path d="M5330 1730 c-8 -5 -33 -10 -55 -11 -28 -1 -32 -3 -15 -6 14 -3 31
-10 39 -16 12 -9 13 -9 7 1 -4 6 -3 12 1 12 5 0 18 7 29 15 21 16 17 20 -6 5z"/>
<path d="M5550 1730 c-8 -5 -35 -10 -60 -11 -27 -1 -35 -4 -20 -6 13 -3 30
-12 36 -21 7 -10 16 -13 20 -9 5 4 2 12 -6 17 -13 8 -13 10 1 10 8 0 24 7 35
15 21 16 17 20 -6 5z"/>
<path d="M778 1723 c-27 -2 -48 -8 -48 -13 0 -4 9 -6 20 -3 11 3 27 0 35 -7 8
-7 15 -8 15 -3 0 6 10 15 23 21 12 6 18 10 12 10 -5 -1 -31 -3 -57 -5z"/>
<path d="M1190 1720 c-37 -6 -40 -7 -13 -8 17 -1 33 -7 35 -12 2 -6 9 -1 16
10 7 11 11 19 10 18 -2 0 -23 -4 -48 -8z"/>
<path d="M1390 1720 l-45 -7 40 -1 c22 -1 47 3 55 8 8 5 11 9 5 8 -5 0 -30 -4
-55 -8z"/>
<path d="M1600 1720 c-25 -4 -36 -8 -24 -8 11 -1 24 -6 30 -11 5 -5 17 -1 28
10 11 11 18 18 15 17 -2 0 -24 -4 -49 -8z"/>
<path d="M2010 1720 l-45 -7 42 -1 c23 -1 45 3 48 8 3 6 5 9 3 8 -2 0 -23 -4
-48 -8z"/>
<path d="M3030 1720 c-25 -4 -35 -8 -23 -8 12 -1 25 -7 29 -13 4 -7 9 -7 13
-2 3 5 15 15 26 21 22 12 21 12 -45 2z"/>
<path d="M3210 1658 c-2 -43 -4 -85 -4 -95 -1 -15 19 -16 207 -16 115 1 210 3
213 5 2 3 -2 18 -11 34 -8 16 -15 24 -15 17 0 -7 -7 -10 -15 -7 -9 4 -15 0
-15 -8 0 -9 -13 -15 -37 -16 -58 -3 -103 7 -103 23 0 17 -32 13 -39 -6 -4 -10
-23 -14 -69 -14 -51 0 -66 4 -78 19 -10 15 -14 16 -16 5 -1 -8 -4 20 -8 61
l-6 75 -4 -77z"/>
<path d="M3668 1723 c-10 -2 -18 -12 -18 -21 0 -11 3 -13 8 -6 4 6 16 16 27
22 20 12 14 13 -17 5z"/>
<path d="M3850 1720 c-25 -4 -35 -8 -23 -8 12 -1 25 -7 29 -13 4 -7 9 -7 13
-2 3 5 15 15 26 21 22 12 21 12 -45 2z"/>
<path d="M5700 1721 c-43 -6 -44 -7 -13 -12 18 -3 42 0 55 7 13 8 19 13 13 12
-5 0 -30 -4 -55 -7z"/>
<path d="M5905 1720 c-22 -4 -31 -8 -19 -9 11 0 25 -6 32 -11 6 -6 10 -7 7 -3
-3 4 7 12 22 19 31 14 18 15 -42 4z"/>
<path d="M2122 1660 c-1 -36 -5 -74 -7 -85 -3 -11 -1 -27 5 -35 8 -12 13 -13
30 -2 11 6 47 12 80 12 33 0 70 -6 81 -12 17 -10 23 -10 26 0 6 15 153 17 153
2 0 -16 37 -12 44 5 3 8 1 27 -5 42 -8 22 -12 24 -19 13 -6 -8 -10 -10 -10 -5
0 6 -4 4 -9 -4 -11 -16 -93 -24 -126 -11 -23 9 -25 15 -27 77 l-2 68 -3 -62
c-3 -45 -8 -63 -18 -63 -7 0 -15 -6 -17 -12 -6 -18 -128 -19 -135 -1 -3 7 -11
13 -19 13 -9 0 -14 19 -17 63 l-3 62 -2 -65z"/>
<path d="M4038 1713 c12 -2 30 -2 40 0 9 3 -1 5 -23 4 -22 0 -30 -2 -17 -4z"/>
<path d="M4228 1713 c6 -2 18 -2 25 0 6 3 1 5 -13 5 -14 0 -19 -2 -12 -5z"/>
<path d="M4289 1640 c-4 -47 -5 -87 -3 -89 2 -3 376 -4 422 -2 14 1 17 31 2
31 -6 0 -11 32 -12 73 l-2 72 -5 -75 c-4 -43 -9 -67 -13 -55 -6 20 -6 20 -13
0 -5 -18 -16 -21 -68 -23 -54 -2 -64 0 -79 20 -17 22 -18 22 -18 3 l-1 -20 -9
20 c-8 19 -9 19 -9 -3 -1 -22 -4 -23 -75 -20 -41 2 -74 5 -74 8 1 20 -4 30
-14 28 -9 -2 -15 16 -18 57 l-5 60 -6 -85z"/>
<path d="M4503 1670 c0 -30 2 -43 4 -27 2 15 2 39 0 55 -2 15 -4 2 -4 -28z"/>
<path d="M4858 1713 c12 -2 30 -2 40 0 9 3 -1 5 -23 4 -22 0 -30 -2 -17 -4z"/>
<path d="M3140 1686 c0 -31 6 -34 13 -6 3 11 1 23 -4 26 -5 3 -9 -6 -9 -20z"/>
<path d="M6380 1700 c0 -5 7 -10 15 -10 8 0 15 -9 15 -20 0 -11 -6 -20 -14
-20 -8 0 -18 -4 -21 -10 -4 -6 15 -10 49 -10 31 0 56 5 56 10 0 6 -11 10 -25
10 -18 0 -25 5 -25 20 0 15 7 20 25 20 14 0 25 5 25 10 0 6 -22 10 -50 10 -27
0 -50 -4 -50 -10z"/>
<path d="M1710 1689 c0 -5 5 -7 10 -4 6 3 10 8 10 11 0 2 -4 4 -10 4 -5 0 -10
-5 -10 -11z"/>
<path d="M2025 1690 c3 -5 8 -10 11 -10 2 0 4 5 4 10 0 6 -5 10 -11 10 -5 0
-7 -4 -4 -10z"/>
<path d="M731 1664 c0 -11 3 -14 6 -6 3 7 2 16 -1 19 -3 4 -6 -2 -5 -13z"/>
<path d="M1330 1670 c-13 -8 -12 -10 3 -10 9 0 17 5 17 10 0 12 -1 12 -20 0z"/>
<path d="M1535 1670 c-3 -5 -1 -10 4 -10 6 0 11 5 11 10 0 6 -2 10 -4 10 -3 0
-8 -4 -11 -10z"/>
<path d="M1940 1670 c-13 -8 -12 -10 3 -10 9 0 17 5 17 10 0 12 -1 12 -20 0z"/>
<path d="M2565 1670 c-3 -5 -1 -10 4 -10 6 0 11 5 11 10 0 6 -2 10 -4 10 -3 0
-8 -4 -11 -10z"/>
<path d="M2760 1670 c-12 -8 -11 -10 8 -10 12 0 22 5 22 10 0 13 -11 13 -30 0z"/>
<path d="M4195 1670 c-3 -5 1 -10 9 -10 9 0 16 5 16 10 0 6 -4 10 -9 10 -6 0
-13 -4 -16 -10z"/>
<path d="M5015 1670 c-3 -5 -2 -10 4 -10 5 0 13 5 16 10 3 6 2 10 -4 10 -5 0
-13 -4 -16 -10z"/>
<path d="M5635 1670 c-3 -5 1 -10 9 -10 9 0 16 5 16 10 0 6 -4 10 -9 10 -6 0
-13 -4 -16 -10z"/>
<path d="M5845 1670 c-3 -5 -1 -10 4 -10 6 0 11 5 11 10 0 6 -2 10 -4 10 -3 0
-8 -4 -11 -10z"/>
<path d="M918 1663 c7 -3 16 -2 19 1 4 3 -2 6 -13 5 -11 0 -14 -3 -6 -6z"/>
<path d="M1738 1663 c7 -3 16 -2 19 1 4 3 -2 6 -13 5 -11 0 -14 -3 -6 -6z"/>
<path d="M2968 1663 c7 -3 16 -2 19 1 4 3 -2 6 -13 5 -11 0 -14 -3 -6 -6z"/>
<path d="M3788 1663 c7 -3 16 -2 19 1 4 3 -2 6 -13 5 -11 0 -14 -3 -6 -6z"/>
<path d="M3988 1663 c7 -3 16 -2 19 1 4 3 -2 6 -13 5 -11 0 -14 -3 -6 -6z"/>
<path d="M4808 1663 c7 -3 16 -2 19 1 4 3 -2 6 -13 5 -11 0 -14 -3 -6 -6z"/>
<path d="M5218 1663 c7 -3 16 -2 19 1 4 3 -2 6 -13 5 -11 0 -14 -3 -6 -6z"/>
<path d="M6048 1663 c7 -3 16 -2 19 1 4 3 -2 6 -13 5 -11 0 -14 -3 -6 -6z"/>
<path d="M790 1645 c0 -8 4 -15 8 -15 5 0 9 7 9 15 0 8 -4 15 -9 15 -4 0 -8
-7 -8 -15z"/>
<path d="M3036 1645 c-18 -14 -18 -14 1 -12 11 0 20 7 20 14 0 7 -1 13 -1 13
-1 0 -9 -7 -20 -15z"/>
<path d="M3650 1651 c0 -6 4 -12 8 -15 5 -3 9 1 9 9 0 8 -4 15 -9 15 -4 0 -8
-4 -8 -9z"/>
<path d="M3840 1647 c0 -10 8 -17 18 -17 9 0 13 4 7 8 -5 4 -13 11 -17 16 -5
5 -8 2 -8 -7z"/>
<path d="M5271 1648 c-1 -12 6 -18 19 -18 12 0 20 7 20 16 0 13 -3 14 -14 5
-11 -9 -15 -9 -19 1 -4 8 -6 7 -6 -4z"/>
<path d="M5687 1653 c-12 -11 -8 -23 7 -23 7 0 20 8 27 18 11 14 11 15 -1 5
-17 -15 -34 -17 -25 -3 7 11 2 13 -8 3z"/>
<path d="M1796 1639 c3 -5 12 -9 21 -9 19 0 9 13 -12 16 -8 1 -13 -2 -9 -7z"/>
<path d="M2015 1640 c-3 -5 -1 -10 4 -10 6 0 11 5 11 10 0 6 -2 10 -4 10 -3 0
-8 -4 -11 -10z"/>
<path d="M2625 1640 c-3 -5 1 -10 10 -10 9 0 13 5 10 10 -3 6 -8 10 -10 10 -2
0 -7 -4 -10 -10z"/>
<path d="M5890 1639 c0 -5 9 -9 20 -9 11 0 20 2 20 4 0 2 -9 6 -20 9 -11 3
-20 1 -20 -4z"/>
<path d="M975 1629 c-4 -6 -5 -12 -2 -15 2 -3 7 2 10 11 7 17 1 20 -8 4z"/>
<path d="M1598 1633 c7 -3 16 -2 19 1 4 3 -2 6 -13 5 -11 0 -14 -3 -6 -6z"/>
<path d="M4047 1633 c-4 -3 -7 -13 -7 -21 0 -18 13 -7 16 13 2 17 1 18 -9 8z"/>
<path d="M5078 1633 c7 -3 16 -2 19 1 4 3 -2 6 -13 5 -11 0 -14 -3 -6 -6z"/>
<path d="M1870 1587 c4 -41 5 -41 8 -8 2 18 0 37 -5 42 -5 5 -6 -11 -3 -34z"/>
<path d="M2690 1587 c4 -41 5 -41 8 -8 2 18 0 37 -5 42 -5 5 -6 -11 -3 -34z"/>
<path d="M846 1604 c-5 -16 -12 -20 -31 -16 -15 2 -25 0 -25 -7 0 -6 14 -11
30 -11 31 0 46 17 38 42 -3 8 -8 5 -12 -8z"/>
<path d="M1052 1595 c0 -16 2 -22 5 -12 2 9 2 23 0 30 -3 6 -5 -1 -5 -18z"/>
<path d="M1253 1601 c-3 -13 -11 -17 -24 -14 -10 3 -19 0 -19 -6 0 -6 9 -11
20 -11 11 0 20 -4 20 -10 0 -5 4 -10 8 -10 4 0 8 16 8 35 0 39 -5 45 -13 16z"/>
<path d="M1460 1600 c0 -17 -5 -19 -25 -14 -15 4 -25 2 -25 -5 0 -6 8 -11 18
-11 10 0 23 -5 30 -12 9 -9 12 -4 12 25 0 20 -2 37 -5 37 -3 0 -5 -9 -5 -20z"/>
<path d="M1585 1610 c3 -5 8 -10 11 -10 2 0 4 5 4 10 0 6 -5 10 -11 10 -5 0
-7 -4 -4 -10z"/>
<path d="M1660 1600 c0 -17 -5 -19 -25 -14 -15 4 -25 2 -25 -5 0 -19 49 -12
60 8 13 25 13 31 0 31 -5 0 -10 -9 -10 -20z"/>
<path d="M3015 1610 c3 -5 8 -10 11 -10 2 0 4 5 4 10 0 6 -5 10 -11 10 -5 0
-7 -4 -4 -10z"/>
<path d="M3101 1603 c-1 -20 -5 -22 -31 -16 -19 3 -30 1 -30 -6 0 -6 14 -11
30 -11 31 0 46 18 37 42 -3 7 -6 3 -6 -9z"/>
<path d="M3710 1600 c0 -16 -5 -19 -30 -13 -20 3 -30 1 -30 -6 0 -8 14 -11 38
-9 30 2 37 7 38 26 1 12 -3 22 -7 22 -5 0 -9 -9 -9 -20z"/>
<path d="M3922 1600 c0 -14 2 -19 5 -12 2 6 2 18 0 25 -3 6 -5 1 -5 -13z"/>
<path d="M4120 1585 c0 -46 15 -46 16 0 0 19 -3 35 -8 35 -4 0 -8 -16 -8 -35z"/>
<path d="M4737 1613 c-11 -10 -8 -63 3 -63 6 0 10 -8 11 -17 0 -12 2 -13 6 -5
3 7 -1 19 -7 27 -7 8 -9 26 -6 40 6 25 5 30 -7 18z"/>
<path d="M4940 1600 c0 -17 -5 -19 -25 -14 -15 4 -25 2 -25 -5 0 -6 9 -11 19
-11 11 0 23 -4 26 -10 12 -19 20 -10 22 25 1 19 -3 35 -8 35 -5 0 -9 -9 -9
-20z"/>
<path d="M5143 1602 c-3 -14 -11 -18 -29 -14 -14 2 -24 0 -24 -7 0 -6 16 -11
35 -11 31 0 35 3 35 25 0 29 -10 33 -17 7z"/>
<path d="M5352 1600 c0 -14 2 -19 5 -12 2 6 2 18 0 25 -3 6 -5 1 -5 -13z"/>
<path d="M5560 1585 c0 -46 14 -46 17 0 1 19 -3 35 -8 35 -5 0 -9 -16 -9 -35z"/>
<path d="M5770 1600 c0 -17 -5 -19 -25 -14 -15 4 -25 2 -25 -5 0 -6 14 -11 30
-11 25 0 30 4 30 25 0 14 -2 25 -5 25 -3 0 -5 -9 -5 -20z"/>
<path d="M5970 1596 c0 -9 -8 -12 -25 -8 -15 2 -25 0 -25 -7 0 -6 11 -11 25
-11 14 0 25 -4 25 -10 0 -5 3 -10 8 -10 4 0 7 14 7 30 0 17 -3 30 -7 30 -5 0
-8 -6 -8 -14z"/>
<path d="M2070 1591 c0 -5 -9 -7 -20 -4 -11 3 -20 0 -20 -6 0 -6 9 -11 19 -11
11 0 22 -6 24 -12 3 -7 6 -1 6 15 1 15 -1 27 -4 27 -3 0 -5 -4 -5 -9z"/>
<path d="M2891 1594 c-1 -6 -12 -9 -26 -6 -15 2 -25 0 -25 -7 0 -6 11 -11 24
-11 13 0 26 -6 29 -12 8 -23 14 -3 6 22 -4 14 -7 20 -8 14z"/>
<path d="M4233 1575 c-9 -20 -8 -25 3 -25 8 0 14 10 14 25 0 31 -2 31 -17 0z"/>
<path d="M995 1580 c3 -5 15 -10 26 -10 11 0 17 5 14 10 -3 6 -15 10 -26 10
-11 0 -17 -4 -14 -10z"/>
<path d="M1815 1580 c3 -5 15 -10 26 -10 11 0 17 5 14 10 -3 6 -15 10 -26 10
-11 0 -17 -4 -14 -10z"/>
<path d="M2640 1580 c0 -5 9 -10 21 -10 11 0 17 5 14 10 -3 6 -13 10 -21 10
-8 0 -14 -4 -14 -10z"/>
<path d="M3860 1580 c0 -5 12 -10 26 -10 14 0 23 4 19 10 -3 6 -15 10 -26 10
-10 0 -19 -4 -19 -10z"/>
<path d="M4027 1571 c-4 -17 -3 -21 5 -13 5 5 8 16 6 23 -3 8 -7 3 -11 -10z"/>
<path d="M4070 1580 c0 -5 9 -10 21 -10 11 0 17 5 14 10 -3 6 -13 10 -21 10
-8 0 -14 -4 -14 -10z"/>
<path d="M4842 1570 c-8 -13 -8 -20 -2 -20 6 0 13 7 17 15 9 24 -1 27 -15 5z"/>
<path d="M5295 1580 c3 -5 15 -10 26 -10 11 0 17 5 14 10 -3 6 -15 10 -26 10
-11 0 -17 -4 -14 -10z"/>
<path d="M5457 1570 c-3 -11 -1 -20 4 -20 5 0 9 9 9 20 0 11 -2 20 -4 20 -2 0
-6 -9 -9 -20z"/>
<path d="M5510 1580 c0 -5 9 -10 21 -10 11 0 17 5 14 10 -3 6 -13 10 -21 10
-8 0 -14 -4 -14 -10z"/>
<path d="M2796 1565 c-3 -8 -1 -15 4 -15 6 0 10 7 10 15 0 8 -2 15 -4 15 -2 0
-6 -7 -10 -15z"/>
<path d="M5673 1560 c-11 -16 -10 -18 2 -14 8 4 15 12 15 20 0 19 -3 18 -17
-6z"/>
<path d="M743 1563 c-7 -3 -13 -14 -12 -26 0 -15 2 -17 6 -7 3 8 11 18 17 22
13 9 5 17 -11 11z"/>
<path d="M1155 1560 c-3 -5 -1 -10 4 -10 6 0 11 5 11 10 0 6 -2 10 -4 10 -3 0
-8 -4 -11 -10z"/>
<path d="M1355 1560 c-3 -5 -2 -10 4 -10 5 0 13 5 16 10 3 6 2 10 -4 10 -5 0
-13 -4 -16 -10z"/>
<path d="M1761 1548 c-14 -23 -14 -23 8 -4 22 20 25 26 13 26 -4 0 -13 -10
-21 -22z"/>
<path d="M1977 1563 c-4 -3 -7 -11 -7 -17 0 -6 5 -5 12 2 6 6 9 14 7 17 -3 3
-9 2 -12 -2z"/>
<path d="M2590 1559 c0 -5 5 -7 10 -4 6 3 10 8 10 11 0 2 -4 4 -10 4 -5 0 -10
-5 -10 -11z"/>
<path d="M3816 1553 c-6 -14 -5 -15 5 -6 7 7 10 15 7 18 -3 3 -9 -2 -12 -12z"/>
<path d="M5877 1563 c-4 -3 -7 -11 -7 -17 0 -6 5 -5 12 2 6 6 9 14 7 17 -3 3
-9 2 -12 -2z"/>
<path d="M1560 1549 c0 -5 5 -7 10 -4 6 3 10 8 10 11 0 2 -4 4 -10 4 -5 0 -10
-5 -10 -11z"/>
<path d="M5040 1549 c0 -5 5 -7 10 -4 6 3 10 8 10 11 0 2 -4 4 -10 4 -5 0 -10
-5 -10 -11z"/>
<path d="M1680 1531 c0 -6 4 -13 10 -16 6 -3 7 1 4 9 -7 18 -14 21 -14 7z"/>
<path d="M2071 1524 c0 -11 3 -14 6 -6 3 7 2 16 -1 19 -3 4 -6 -2 -5 -13z"/>
<path d="M3930 1531 c0 -5 5 -13 10 -16 6 -3 10 -2 10 4 0 5 -4 13 -10 16 -5
3 -10 2 -10 -4z"/>
<path d="M5366 1527 c3 -10 9 -15 12 -12 3 3 0 11 -7 18 -10 9 -11 8 -5 -6z"/>
<path d="M1270 1526 c0 -2 8 -10 18 -17 15 -13 16 -12 3 4 -13 16 -21 21 -21
13z"/>
<path d="M1896 1517 c3 -10 9 -15 12 -12 3 3 0 11 -7 18 -10 9 -11 8 -5 -6z"/>
<path d="M815 1510 c-3 -5 -1 -10 4 -10 6 0 11 5 11 10 0 6 -2 10 -4 10 -3 0
-8 -4 -11 -10z"/>
<path d="M1075 1510 c3 -5 8 -10 11 -10 2 0 4 5 4 10 0 6 -5 10 -11 10 -5 0
-7 -4 -4 -10z"/>
<path d="M1425 1510 c-11 -4 -33 -5 -50 -2 -16 2 -27 2 -23 -2 3 -4 12 -8 20
-10 7 -1 19 -5 26 -9 7 -5 12 -4 12 2 0 6 6 11 14 11 8 0 18 5 21 10 7 11 7
11 -20 0z"/>
<path d="M2040 1510 c-8 -6 -28 -7 -45 -4 -35 7 -32 3 13 -19 18 -8 30 -11 26
-6 -3 6 2 17 12 24 22 16 17 20 -6 5z"/>
<path d="M2854 1507 c-17 -9 -19 -15 -10 -23 9 -8 15 -5 23 13 6 12 10 23 10
23 -1 -1 -12 -6 -23 -13z"/>
<path d="M3680 1510 c-8 -5 -12 -12 -9 -15 4 -3 12 1 19 10 14 17 11 19 -10 5z"/>
<path d="M4910 1510 c-8 -5 -31 -7 -50 -5 -32 5 -33 5 -10 -6 14 -6 33 -15 44
-21 13 -7 16 -6 11 2 -4 6 1 18 11 25 22 16 17 20 -6 5z"/>
<path d="M5528 1507 c-7 -8 -20 -11 -28 -9 -11 4 -10 -1 4 -17 11 -11 21 -21
24 -21 3 0 2 3 -1 7 -4 3 0 17 8 30 17 25 14 30 -7 10z"/>
<path d="M5735 1509 c-11 -17 1 -21 15 -4 8 9 8 15 2 15 -6 0 -14 -5 -17 -11z"/>
<path d="M730 1502 c0 -4 9 -8 20 -9 11 -1 20 2 20 8 0 5 -9 9 -20 9 -11 0
-20 -4 -20 -8z"/>
<path d="M1175 1494 c17 -7 31 -8 33 -3 2 5 8 7 13 3 5 -3 9 -1 9 3 0 5 -19 9
-42 9 l-43 1 30 -13z"/>
<path d="M1585 1495 c17 -7 32 -11 35 -9 7 8 -24 24 -45 23 -15 0 -13 -4 10
-14z"/>
<path d="M1770 1503 c0 -2 12 -8 27 -14 20 -7 30 -6 40 3 10 11 6 14 -27 14
-22 1 -40 0 -40 -3z"/>
<path d="M2590 1505 c0 -3 12 -10 27 -16 21 -8 30 -6 42 6 10 10 11 15 3 15
-7 0 -12 -5 -12 -10 0 -7 -6 -7 -19 0 -21 11 -41 13 -41 5z"/>
<path d="M2795 1500 c3 -5 10 -10 16 -10 5 0 9 5 9 10 0 6 -7 10 -16 10 -8 0
-12 -4 -9 -10z"/>
<path d="M3004 1501 c8 -12 46 -21 46 -11 0 8 -24 20 -41 20 -6 0 -8 -4 -5 -9z"/>
<path d="M3060 1499 c0 -5 5 -7 10 -4 6 3 10 8 10 11 0 2 -4 4 -10 4 -5 0 -10
-5 -10 -11z"/>
<path d="M3839 1493 c28 -12 36 -12 47 -1 11 11 5 13 -34 14 l-47 2 34 -15z"/>
<path d="M4024 1501 c3 -5 18 -11 33 -14 26 -5 26 -4 8 9 -21 15 -49 19 -41 5z"/>
<path d="M4235 1500 c4 -6 11 -8 16 -5 14 9 11 15 -7 15 -8 0 -12 -5 -9 -10z"/>
<path d="M5065 1495 c17 -7 32 -11 35 -9 7 8 -24 24 -45 23 -15 0 -13 -4 10
-14z"/>
<path d="M5250 1505 c0 -3 12 -10 27 -16 21 -8 30 -6 42 6 10 10 11 15 3 15
-7 0 -12 -5 -12 -10 0 -7 -6 -7 -19 0 -21 11 -41 13 -41 5z"/>
<path d="M5450 1506 c0 -2 7 -6 15 -10 8 -3 15 -1 15 4 0 6 -7 10 -15 10 -8 0
-15 -2 -15 -4z"/>
<path d="M5678 1503 c7 -3 16 -2 19 1 4 3 -2 6 -13 5 -11 0 -14 -3 -6 -6z"/>
<path d="M5875 1500 c3 -5 10 -10 16 -10 5 0 9 5 9 10 0 6 -7 10 -16 10 -8 0
-12 -4 -9 -10z"/>
<path d="M5922 1503 c-6 -2 -10 -9 -6 -14 8 -14 21 -11 28 6 6 15 1 17 -22 8z"/>
<path d="M3651 1484 c0 -11 3 -14 6 -6 3 7 2 16 -1 19 -3 4 -6 -2 -5 -13z"/>
<path d="M5398 1488 c5 -5 16 -8 23 -6 8 3 3 7 -10 11 -17 4 -21 3 -13 -5z"/>
<path d="M890 1479 c0 -5 5 -7 10 -4 6 3 10 8 10 11 0 2 -4 4 -10 4 -5 0 -10
-5 -10 -11z"/>
<path d="M1710 1479 c0 -5 5 -7 10 -4 6 3 10 8 10 11 0 2 -4 4 -10 4 -5 0 -10
-5 -10 -11z"/>
<path d="M3140 1479 c0 -5 5 -7 10 -4 6 3 10 8 10 11 0 2 -4 4 -10 4 -5 0 -10
-5 -10 -11z"/>
<path d="M6022 1470 c0 -14 2 -19 5 -12 2 6 2 18 0 25 -3 6 -5 1 -5 -13z"/>
<path d="M730 1449 c0 -5 5 -7 10 -4 6 3 10 8 10 11 0 2 -4 4 -10 4 -5 0 -10
-5 -10 -11z"/>
<path d="M1338 1453 c7 -3 16 -2 19 1 4 3 -2 6 -13 5 -11 0 -14 -3 -6 -6z"/>
<path d="M1538 1453 c6 -2 18 -2 25 0 6 3 1 5 -13 5 -14 0 -19 -2 -12 -5z"/>
<path d="M1740 1456 c0 -2 7 -6 15 -10 8 -3 15 -1 15 4 0 6 -7 10 -15 10 -8 0
-15 -2 -15 -4z"/>
<path d="M1948 1453 c6 -2 18 -2 25 0 6 3 1 5 -13 5 -14 0 -19 -2 -12 -5z"/>
<path d="M2570 1450 c0 -5 5 -10 10 -10 6 0 10 5 10 10 0 6 -4 10 -10 10 -5 0
-10 -4 -10 -10z"/>
<path d="M2768 1453 c6 -2 18 -2 25 0 6 3 1 5 -13 5 -14 0 -19 -2 -12 -5z"/>
<path d="M2966 1451 c-4 -5 3 -7 14 -4 23 6 26 13 6 13 -8 0 -17 -4 -20 -9z"/>
<path d="M3790 1456 c0 -2 7 -6 15 -10 8 -3 15 -1 15 4 0 6 -7 10 -15 10 -8 0
-15 -2 -15 -4z"/>
<path d="M3998 1453 c7 -3 16 -2 19 1 4 3 -2 6 -13 5 -11 0 -14 -3 -6 -6z"/>
<path d="M4208 1453 c7 -3 16 -2 19 1 4 3 -2 6 -13 5 -11 0 -14 -3 -6 -6z"/>
<path d="M4818 1453 c7 -3 16 -2 19 1 4 3 -2 6 -13 5 -11 0 -14 -3 -6 -6z"/>
<path d="M5220 1456 c0 -2 7 -7 16 -10 8 -3 12 -2 9 4 -6 10 -25 14 -25 6z"/>
<path d="M5428 1453 c6 -2 18 -2 25 0 6 3 1 5 -13 5 -14 0 -19 -2 -12 -5z"/>
<path d="M5648 1453 c7 -3 16 -2 19 1 4 3 -2 6 -13 5 -11 0 -14 -3 -6 -6z"/>
<path d="M5840 1456 c0 -2 7 -6 15 -10 8 -3 15 -1 15 4 0 6 -7 10 -15 10 -8 0
-15 -2 -15 -4z"/>
<path d="M6050 1456 c0 -2 7 -6 15 -10 8 -3 15 -1 15 4 0 6 -7 10 -15 10 -8 0
-15 -2 -15 -4z"/>
<path d="M1610 1429 c0 -5 5 -7 10 -4 6 3 10 8 10 11 0 2 -4 4 -10 4 -5 0 -10
-5 -10 -11z"/>
<path d="M3650 1430 c0 -5 5 -10 10 -10 6 0 10 5 10 10 0 6 -4 10 -10 10 -5 0
-10 -4 -10 -10z"/>
<path d="M5295 1430 c-3 -5 -1 -10 4 -10 6 0 11 5 11 10 0 6 -2 10 -4 10 -3 0
-8 -4 -11 -10z"/>
<path d="M457 1403 c-10 -10 -8 -73 2 -73 11 0 20 56 11 70 -3 6 -9 7 -13 3z"/>
<path d="M6488 1398 c-7 -19 3 -58 13 -52 12 7 12 51 0 58 -5 4 -11 1 -13 -6z"/>
<path d="M846 1385 c-3 -8 -1 -15 4 -15 6 0 10 7 10 15 0 8 -2 15 -4 15 -2 0
-6 -7 -10 -15z"/>
<path d="M1456 1385 c-3 -8 -1 -15 4 -15 6 0 10 7 10 15 0 8 -2 15 -4 15 -2 0
-6 -7 -10 -15z"/>
<path d="M1666 1391 c-4 -7 -5 -15 -2 -18 9 -9 19 4 14 18 -4 11 -6 11 -12 0z"/>
<path d="M3096 1385 c-3 -8 -1 -15 4 -15 6 0 10 7 10 15 0 8 -2 15 -4 15 -2 0
-6 -7 -10 -15z"/>
<path d="M3710 1386 c0 -9 5 -16 10 -16 6 0 10 4 10 9 0 6 -4 13 -10 16 -5 3
-10 -1 -10 -9z"/>
<path d="M3916 1385 c-3 -8 -1 -15 4 -15 6 0 10 7 10 15 0 8 -2 15 -4 15 -2 0
-6 -7 -10 -15z"/>
<path d="M4120 1384 c0 -8 5 -12 10 -9 6 3 10 10 10 16 0 5 -4 9 -10 9 -5 0
-10 -7 -10 -16z"/>
<path d="M4730 1377 c0 -16 7 -35 15 -43 18 -19 18 -19 0 31 -13 37 -14 38
-15 12z"/>
<path d="M4937 1387 c-3 -7 -21 -12 -45 -12 -32 0 -42 -4 -46 -19 -4 -14 -2
-16 7 -7 6 6 22 11 37 11 40 0 70 11 70 26 0 18 -16 18 -23 1z"/>
<path d="M5563 1385 c0 -8 4 -12 9 -9 4 3 8 9 8 15 0 5 -4 9 -8 9 -5 0 -9 -7
-9 -15z"/>
<path d="M5766 1385 c-3 -8 -1 -15 4 -15 6 0 10 7 10 15 0 8 -2 15 -4 15 -2 0
-6 -7 -10 -15z"/>
<path d="M5975 1389 c-4 -6 -5 -12 -2 -15 2 -3 7 2 10 11 7 17 1 20 -8 4z"/>
<path d="M5145 1380 c-3 -5 -1 -10 4 -10 6 0 11 5 11 10 0 6 -2 10 -4 10 -3 0
-8 -4 -11 -10z"/>
<path d="M5469 1385 c-1 -3 -2 -8 -3 -12 -1 -5 -5 -15 -10 -23 -7 -12 -6 -13
5 -2 7 6 30 12 52 12 21 0 36 4 33 9 -3 5 -22 7 -42 4 -25 -3 -34 -1 -30 6 4
6 5 11 2 11 -3 0 -7 -2 -7 -5z"/>
<path d="M800 1370 c0 -6 7 -10 15 -10 8 0 15 2 15 4 0 2 -7 6 -15 10 -8 3
-15 1 -15 -4z"/>
<path d="M989 1369 c-10 -6 -4 -9 19 -9 17 0 32 2 32 4 0 9 -39 13 -51 5z"/>
<path d="M1160 1365 c0 -6 16 -9 41 -7 22 2 38 7 35 10 -11 10 -76 8 -76 -3z"/>
<path d="M1393 1373 c-12 -2 -24 -12 -28 -21 -5 -14 -4 -15 6 -4 7 6 26 12 41
12 15 0 28 5 28 10 0 10 -8 11 -47 3z"/>
<path d="M1601 1371 c-9 -6 -5 -8 13 -8 14 0 26 3 26 8 0 11 -21 11 -39 0z"/>
<path d="M1805 1370 c-4 -6 6 -10 22 -10 22 0 25 2 13 10 -19 12 -27 12 -35 0z"/>
<path d="M2013 1372 c-12 -2 -27 -11 -34 -20 -11 -14 -11 -15 1 -4 8 6 29 12
47 12 18 0 33 4 33 8 0 9 -10 10 -47 4z"/>
<path d="M2600 1368 c0 -5 16 -8 36 -8 20 0 33 4 29 10 -7 11 -65 9 -65 -2z"/>
<path d="M2820 1370 c-21 -7 -18 -8 18 -9 26 -1 41 3 37 9 -7 11 -19 11 -55 0z"/>
<path d="M3036 1372 c-2 -4 7 -9 20 -10 15 -1 22 2 19 8 -7 12 -32 13 -39 2z"/>
<path d="M3650 1369 c0 -5 12 -9 27 -9 30 0 27 9 -6 15 -11 2 -21 0 -21 -6z"/>
<path d="M3855 1370 c-4 -6 6 -10 22 -10 22 0 25 2 13 10 -19 12 -27 12 -35 0z"/>
<path d="M4036 1371 c2 -2 -2 -11 -8 -20 -10 -13 -10 -14 2 -3 8 6 30 12 49
12 44 0 33 13 -13 14 -19 1 -33 -1 -30 -3z"/>
<path d="M4237 1359 c-4 -16 -3 -18 9 -8 7 6 11 15 8 20 -8 13 -11 11 -17 -12z"/>
<path d="M5085 1369 c-16 -6 -14 -8 13 -8 33 -1 41 4 20 12 -7 2 -22 1 -33 -4z"/>
<path d="M5286 1371 c-3 -5 5 -8 19 -8 14 0 22 3 19 8 -3 5 -11 9 -19 9 -8 0
-16 -4 -19 -9z"/>
<path d="M5710 1370 c-12 -8 -9 -10 13 -10 16 0 26 4 22 10 -8 12 -16 12 -35
0z"/>
<path d="M5912 1371 c-9 -5 -2 -8 20 -9 23 -1 28 2 18 8 -18 12 -22 12 -38 1z"/>
<path d="M768 1363 c7 -3 16 -2 19 1 4 3 -2 6 -13 5 -11 0 -14 -3 -6 -6z"/>
<path d="M1455 1350 c3 -5 8 -10 11 -10 2 0 4 5 4 10 0 6 -5 10 -11 10 -5 0
-7 -4 -4 -10z"/>
<path d="M2895 1350 c3 -5 8 -10 11 -10 2 0 4 5 4 10 0 6 -5 10 -11 10 -5 0
-7 -4 -4 -10z"/>
<path d="M4940 1350 c0 -5 5 -10 11 -10 5 0 7 5 4 10 -3 6 -8 10 -11 10 -2 0
-4 -4 -4 -10z"/>
<path d="M5565 1350 c3 -5 8 -10 11 -10 2 0 4 5 4 10 0 6 -5 10 -11 10 -5 0
-7 -4 -4 -10z"/>
<path d="M726 1334 c-8 -21 -8 -24 3 -24 5 0 11 9 14 20 6 24 -8 27 -17 4z"/>
<path d="M3926 1337 c3 -10 9 -15 12 -12 3 3 0 11 -7 18 -10 9 -11 8 -5 -6z"/>
<path d="M841 1321 c-14 -4 -26 -12 -29 -20 -3 -10 0 -11 18 -1 12 6 28 9 36
6 8 -3 14 -1 14 4 0 14 -13 17 -39 11z"/>
<path d="M920 1326 c0 -2 7 -7 16 -10 8 -3 12 -2 9 4 -6 10 -25 14 -25 6z"/>
<path d="M1235 1314 c-19 -20 -20 -30 0 -14 8 7 22 10 30 6 8 -3 15 -1 15 3 0
17 -30 20 -45 5z"/>
<path d="M5228 1323 c7 -3 16 -2 19 1 4 3 -2 6 -13 5 -11 0 -14 -3 -6 -6z"/>
<path d="M5542 1313 c-15 -13 -15 -14 8 -9 14 3 28 6 33 6 4 0 7 4 7 8 0 14
-29 10 -48 -5z"/>
<path d="M5840 1326 c0 -2 9 -6 20 -9 11 -3 18 -1 14 4 -5 9 -34 13 -34 5z"/>
<path d="M5954 1315 c-10 -8 -32 -15 -49 -15 l-30 0 29 -15 c32 -17 39 -19 32
-7 -7 12 39 36 53 28 6 -4 11 0 11 8 0 20 -20 20 -46 1z"/>
<path d="M6050 1326 c0 -2 7 -6 15 -10 8 -3 15 -1 15 4 0 6 -7 10 -15 10 -8 0
-15 -2 -15 -4z"/>
<path d="M1021 1307 c-6 -8 -25 -12 -43 -11 -18 2 -24 1 -13 -2 11 -3 24 -10
30 -15 10 -10 32 -13 22 -2 -4 3 5 15 20 25 19 12 23 18 12 18 -9 0 -22 -6
-28 -13z"/>
<path d="M1390 1311 c0 -5 -8 -12 -17 -14 -16 -4 -16 -5 -1 -6 14 -1 16 -12
15 -63 -1 -44 -6 -67 -17 -76 -13 -11 -13 -11 3 -6 28 10 23 -44 -5 -56 -23
-9 -23 -9 -2 -9 21 -1 22 -6 22 -96 1 -91 0 -95 -21 -96 -21 0 -21 -1 -2 -8
17 -7 20 -19 22 -104 3 -88 1 -96 -15 -91 -16 5 -16 5 0 -8 19 -16 22 -118 3
-130 -6 -5 -6 -8 3 -8 20 0 15 -58 -5 -62 -15 -3 -14 -5 5 -10 l22 -6 0 429
c0 236 -2 429 -5 429 -3 0 -5 -4 -5 -9z"/>
<path d="M5739 1303 c-11 -13 -11 -15 -1 -9 8 5 26 12 40 16 l27 8 -26 1 c-15
1 -33 -7 -40 -16z"/>
<path d="M750 1293 c14 -3 31 -10 38 -15 9 -8 11 -7 6 6 -4 10 -17 16 -38 15
-27 -2 -28 -2 -6 -6z"/>
<path d="M1184 1285 c35 -19 37 -19 30 0 -4 8 -18 15 -33 15 l-26 0 29 -15z"/>
<path d="M5484 1285 c22 -12 32 -13 40 -4 8 9 8 10 -1 5 -7 -4 -13 -2 -13 3 0
6 -12 11 -27 11 l-28 0 29 -15z"/>
<path d="M5685 1290 c27 -12 35 -12 35 0 0 6 -12 10 -27 9 -25 0 -26 -1 -8 -9z"/>
<path d="M6490 1268 c0 -21 5 -38 10 -38 13 0 13 40 0 60 -7 11 -10 5 -10 -22z"/>
<path d="M890 1269 c0 -5 5 -7 10 -4 6 3 10 8 10 11 0 2 -4 4 -10 4 -5 0 -10
-5 -10 -11z"/>
<path d="M928 1243 c7 -3 16 -2 19 1 4 3 -2 6 -13 5 -11 0 -14 -3 -6 -6z"/>
<path d="M1338 1243 c7 -3 16 -2 19 1 4 3 -2 6 -13 5 -11 0 -14 -3 -6 -6z"/>
<path d="M5430 1239 c0 -5 5 -7 10 -4 6 3 10 8 10 11 0 2 -4 4 -10 4 -5 0 -10
-5 -10 -11z"/>
<path d="M5648 1243 c7 -3 16 -2 19 1 4 3 -2 6 -13 5 -11 0 -14 -3 -6 -6z"/>
<path d="M5840 1246 c0 -2 9 -6 20 -9 11 -3 20 -1 20 4 0 5 -9 9 -20 9 -11 0
-20 -2 -20 -4z"/>
<path d="M6050 1246 c0 -2 7 -6 15 -10 8 -3 15 -1 15 4 0 6 -7 10 -15 10 -8 0
-15 -2 -15 -4z"/>
<path d="M760 1229 c0 -5 5 -7 10 -4 6 3 10 8 10 11 0 2 -4 4 -10 4 -5 0 -10
-5 -10 -11z"/>
<path d="M791 1224 c0 -11 3 -14 6 -6 3 7 2 16 -1 19 -3 4 -6 -2 -5 -13z"/>
<path d="M965 1230 c3 -5 8 -10 11 -10 2 0 4 5 4 10 0 6 -5 10 -11 10 -5 0 -7
-4 -4 -10z"/>
<path d="M5470 1229 c0 -5 5 -7 10 -4 6 3 10 8 10 11 0 2 -4 4 -10 4 -5 0 -10
-5 -10 -11z"/>
<path d="M5890 1229 c0 -5 5 -7 10 -4 6 3 10 8 10 11 0 2 -4 4 -10 4 -5 0 -10
-5 -10 -11z"/>
<path d="M5473 1195 c0 -8 4 -12 9 -9 5 3 6 10 3 15 -9 13 -12 11 -12 -6z"/>
<path d="M845 1191 c-3 -5 -2 -12 3 -15 5 -3 9 1 9 9 0 17 -3 19 -12 6z"/>
<path d="M5374 915 c0 -159 2 -223 3 -142 2 82 2 212 0 290 -1 78 -3 12 -3
-148z"/>
<path d="M5569 1198 c-7 -22 -8 -58 -1 -62 4 -2 9 11 9 30 1 27 -3 45 -8 32z"/>
<path d="M5773 1165 c0 -22 2 -30 4 -17 2 12 2 30 0 40 -3 9 -5 -1 -4 -23z"/>
<path d="M1440 1110 c0 -52 -4 -80 -11 -80 -8 0 -8 -4 -1 -13 7 -8 11 -79 11
-196 0 -101 2 -186 5 -189 3 -3 6 121 6 276 0 155 -2 282 -5 282 -3 0 -5 -36
-5 -80z"/>
<path d="M5499 1167 c5 -5 19 -7 32 -5 20 3 19 5 -9 9 -20 3 -29 2 -23 -4z"/>
<path d="M798 1163 c6 -2 18 -2 25 0 6 3 1 5 -13 5 -14 0 -19 -2 -12 -5z"/>
<path d="M998 1163 c6 -2 18 -2 25 0 6 3 1 5 -13 5 -14 0 -19 -2 -12 -5z"/>
<path d="M1208 1163 c6 -2 18 -2 25 0 6 3 1 5 -13 5 -14 0 -19 -2 -12 -5z"/>
<path d="M1250 1161 c0 -6 4 -13 10 -16 6 -3 7 1 4 9 -7 18 -14 21 -14 7z"/>
<path d="M5723 1163 c9 -2 23 -2 30 0 6 3 -1 5 -18 5 -16 0 -22 -2 -12 -5z"/>
<path d="M5923 1163 c9 -2 23 -2 30 0 6 3 -1 5 -18 5 -16 0 -22 -2 -12 -5z"/>
<path d="M5970 1153 c0 -13 5 -23 10 -23 13 0 13 11 0 30 -8 12 -10 11 -10 -7z"/>
<path d="M1156 1143 c-6 -14 -5 -15 5 -6 7 7 10 15 7 18 -3 3 -9 -2 -12 -12z"/>
<path d="M733 1135 c-3 -9 -3 -18 -1 -21 3 -3 8 4 11 16 6 23 -1 27 -10 5z"/>
<path d="M845 1113 c-11 -3 -24 -9 -30 -15 -13 -12 46 1 60 13 10 10 4 10 -30
2z"/>
<path d="M1245 1105 l-30 -14 30 6 c17 3 34 10 40 14 14 13 -5 10 -40 -6z"/>
<path d="M5570 1113 c-14 -3 -29 -9 -35 -15 -13 -12 46 1 60 13 5 5 7 8 5 8
-3 -1 -16 -4 -30 -6z"/>
<path d="M5965 1105 l-30 -14 30 6 c17 3 34 10 40 14 14 13 -5 10 -40 -6z"/>
<path d="M1048 1103 c7 -3 16 -2 19 1 4 3 -2 6 -13 5 -11 0 -14 -3 -6 -6z"/>
<path d="M5745 1100 c-7 -12 2 -12 30 0 19 8 19 9 -2 9 -12 1 -25 -3 -28 -9z"/>
<path d="M738 1089 c-9 -6 -5 -9 13 -9 14 0 30 -5 35 -10 7 -7 11 -6 11 4 0
17 -40 27 -59 15z"/>
<path d="M944 1088 c-3 -4 4 -8 15 -8 10 0 26 -3 35 -6 9 -3 16 -2 16 4 0 12
-59 22 -66 10z"/>
<path d="M1146 1091 c-3 -5 9 -11 27 -14 30 -4 46 -2 36 7 -11 9 -58 15 -63 7z"/>
<path d="M5665 1090 c-3 -4 9 -10 25 -12 17 -3 30 -1 30 3 0 10 -50 18 -55 9z"/>
<path d="M5454 1083 c16 -3 40 -12 53 -20 26 -17 31 -9 9 13 -8 8 -31 13 -53
13 -33 -2 -34 -3 -9 -6z"/>
<path d="M5891 1087 c2 -1 12 -9 22 -16 14 -12 17 -11 17 3 0 10 -8 16 -22 16
-12 0 -19 -1 -17 -3z"/>
<path d="M897 1038 c6 -11 43 -10 43 1 0 5 -11 8 -24 7 -13 0 -22 -4 -19 -8z"/>
<path d="M1020 1040 c0 -5 5 -10 11 -10 5 0 7 5 4 10 -3 6 -8 10 -11 10 -2 0
-4 -4 -4 -10z"/>
<path d="M1320 1040 c-12 -8 -11 -10 8 -10 12 0 22 5 22 10 0 13 -11 13 -30 0z"/>
<path d="M5430 1040 c0 -5 5 -10 10 -10 6 0 10 5 10 10 0 6 -4 10 -10 10 -5 0
-10 -4 -10 -10z"/>
<path d="M5630 1040 c-12 -8 -11 -10 8 -10 12 0 22 5 22 10 0 13 -11 13 -30 0z"/>
<path d="M5835 1040 c-3 -5 3 -10 15 -10 12 0 18 5 15 10 -3 6 -10 10 -15 10
-5 0 -12 -4 -15 -10z"/>
<path d="M6040 1040 c-12 -8 -11 -10 8 -10 12 0 22 5 22 10 0 13 -11 13 -30 0z"/>
<path d="M786 1027 c3 -10 9 -15 12 -12 3 3 0 11 -7 18 -10 9 -11 8 -5 -6z"/>
<path d="M5320 1020 c0 -5 5 -10 10 -10 6 0 10 5 10 10 0 6 -4 10 -10 10 -5 0
-10 -4 -10 -10z"/>
<path d="M5890 1018 c0 -4 9 -8 20 -8 11 0 20 4 20 8 0 4 -9 8 -20 8 -11 0
-20 -4 -20 -8z"/>
<path d="M5495 1010 c4 -6 11 -8 16 -5 14 9 11 15 -7 15 -8 0 -12 -5 -9 -10z"/>
<path d="M1033 1003 c12 -3 17 -15 18 -41 l2 -37 6 35 c7 36 -2 50 -29 49 -11
-1 -10 -3 3 -6z"/>
<path d="M5538 1003 c7 -3 16 -2 19 1 4 3 -2 6 -13 5 -11 0 -14 -3 -6 -6z"/>
<path d="M5948 1003 c7 -3 16 -2 19 1 4 3 -2 6 -13 5 -11 0 -14 -3 -6 -6z"/>
<path d="M970 990 c0 -5 5 -10 11 -10 5 0 7 5 4 10 -3 6 -8 10 -11 10 -2 0 -4
-4 -4 -10z"/>
<path d="M5563 984 c-3 -10 -11 -22 -17 -26 -7 -5 -4 -8 6 -8 9 0 20 9 23 21
9 26 -2 38 -12 13z"/>
<path d="M5770 981 c0 -11 -6 -22 -12 -24 -8 -3 -6 -6 5 -6 12 -1 17 7 17 24
0 14 -2 25 -5 25 -3 0 -5 -9 -5 -19z"/>
<path d="M838 968 c-19 -19 -13 -24 11 -9 7 5 12 13 10 18 -2 5 -12 1 -21 -9z"/>
<path d="M1251 971 c-8 -14 -7 -22 3 -30 10 -8 13 -4 13 19 0 35 -3 37 -16 11z"/>
<path d="M5960 960 c-13 -8 -12 -10 3 -10 9 0 17 5 17 10 0 12 -1 12 -20 0z"/>
<path d="M1156 943 c-6 -14 -5 -15 5 -6 7 7 10 15 7 18 -3 3 -9 -2 -12 -12z"/>
<path d="M5456 943 c-6 -14 -5 -15 5 -6 7 7 10 15 7 18 -3 3 -9 -2 -12 -12z"/>
<path d="M5670 945 c-8 -9 -8 -15 -2 -15 12 0 26 19 19 26 -2 2 -10 -2 -17
-11z"/>
<path d="M6380 950 c0 -5 7 -10 15 -10 9 0 15 -9 15 -25 0 -16 -6 -25 -15 -25
-8 0 -15 -4 -15 -10 0 -5 23 -10 50 -10 50 0 70 16 28 22 -31 4 -31 42 0 46
12 2 20 8 17 13 -8 12 -95 12 -95 -1z"/>
<path d="M734 935 c-10 -26 1 -35 13 -10 6 14 7 25 2 25 -5 0 -12 -7 -15 -15z"/>
<path d="M865 910 c3 -5 8 -10 11 -10 2 0 4 5 4 10 0 6 -5 10 -11 10 -5 0 -7
-4 -4 -10z"/>
<path d="M1270 909 c0 -5 5 -7 10 -4 6 3 10 8 10 11 0 2 -4 4 -10 4 -5 0 -10
-5 -10 -11z"/>
<path d="M1024 896 c-11 -9 -30 -12 -48 -9 -21 5 -27 3 -22 -6 5 -7 14 -10 21
-7 7 2 16 1 21 -3 5 -4 20 3 33 16 27 26 25 30 -5 9z"/>
<path d="M778 893 c-27 -2 -48 -8 -48 -12 0 -9 96 2 107 12 3 4 2 6 -3 5 -5
-1 -30 -3 -56 -5z"/>
<path d="M5936 892 c-3 -5 -18 -8 -33 -7 -18 2 -20 1 -5 -2 12 -2 22 -9 22
-14 0 -16 15 -10 28 11 7 11 8 20 3 20 -6 0 -12 -4 -15 -8z"/>
<path d="M1175 883 c16 -3 33 -9 36 -15 4 -5 9 -3 12 6 5 13 -1 16 -36 15 -34
-2 -36 -3 -12 -6z"/>
<path d="M5473 883 c15 -2 27 -9 27 -14 0 -5 5 -9 11 -9 5 0 8 4 5 9 -4 5 0
12 6 14 7 3 -7 5 -32 5 -28 -1 -34 -3 -17 -5z"/>
<path d="M731 834 c0 -11 3 -14 6 -6 3 7 2 16 -1 19 -3 4 -6 -2 -5 -13z"/>
<path d="M1330 840 c-13 -8 -12 -10 3 -10 9 0 17 5 17 10 0 12 -1 12 -20 0z"/>
<path d="M5430 834 c0 -8 5 -12 10 -9 6 4 8 11 5 16 -9 14 -15 11 -15 -7z"/>
<path d="M5635 840 c-3 -5 1 -10 10 -10 9 0 13 5 10 10 -3 6 -8 10 -10 10 -2
0 -7 -4 -10 -10z"/>
<path d="M5845 840 c-3 -5 -1 -10 4 -10 6 0 11 5 11 10 0 6 -2 10 -4 10 -3 0
-8 -4 -11 -10z"/>
<path d="M918 833 c7 -3 16 -2 19 1 4 3 -2 6 -13 5 -11 0 -14 -3 -6 -6z"/>
<path d="M1128 833 c7 -3 16 -2 19 1 4 3 -2 6 -13 5 -11 0 -14 -3 -6 -6z"/>
<path d="M6048 833 c7 -3 16 -2 19 1 4 3 -2 6 -13 5 -11 0 -14 -3 -6 -6z"/>
<path d="M790 819 c0 -6 -7 -8 -17 -4 -15 5 -16 4 -5 -6 10 -11 15 -10 29 4
11 11 13 17 5 17 -7 0 -12 -5 -12 -11z"/>
<path d="M973 805 c0 -16 2 -24 4 -17 3 6 11 12 19 12 8 0 14 5 14 11 0 6 -6
9 -14 6 -8 -3 -17 -1 -19 6 -2 7 -4 -1 -4 -18z"/>
<path d="M5920 819 c0 -6 -7 -8 -16 -5 -8 3 -12 2 -9 -4 10 -15 35 -12 35 5 0
8 -2 15 -5 15 -3 0 -5 -5 -5 -11z"/>
<path d="M5495 810 c-3 -5 -1 -10 4 -10 6 0 11 5 11 10 0 6 -2 10 -4 10 -3 0
-8 -4 -11 -10z"/>
<path d="M1052 770 c0 -14 2 -19 5 -12 2 6 2 18 0 25 -3 6 -5 1 -5 -13z"/>
<path d="M5570 790 c-8 -26 -7 -41 2 -32 6 6 8 16 5 24 -3 7 -6 11 -7 8z"/>
<path d="M5772 770 c0 -14 2 -19 5 -12 2 6 2 18 0 25 -3 6 -5 1 -5 -13z"/>
<path d="M5975 769 c-4 -6 -5 -12 -2 -15 2 -3 7 2 10 11 7 17 1 20 -8 4z"/>
<path d="M845 760 c-3 -5 -1 -10 4 -10 6 0 11 5 11 10 0 6 -2 10 -4 10 -3 0
-8 -4 -11 -10z"/>
<path d="M990 759 c0 -5 11 -9 25 -9 14 0 25 2 25 4 0 2 -11 6 -25 8 -14 3
-25 1 -25 -3z"/>
<path d="M1200 759 c0 -5 9 -9 20 -9 11 0 20 2 20 4 0 2 -9 6 -20 9 -11 3 -20
1 -20 -4z"/>
<path d="M798 753 c6 -2 18 -2 25 0 6 3 1 5 -13 5 -14 0 -19 -2 -12 -5z"/>
<path d="M5456 745 c-3 -8 -1 -15 4 -15 13 0 22 18 11 24 -5 3 -11 -1 -15 -9z"/>
<path d="M5518 753 c6 -2 18 -2 25 0 6 3 1 5 -13 5 -14 0 -19 -2 -12 -5z"/>
<path d="M5728 753 c6 -2 18 -2 25 0 6 3 1 5 -13 5 -14 0 -19 -2 -12 -5z"/>
<path d="M5928 753 c6 -2 18 -2 25 0 6 3 1 5 -13 5 -14 0 -19 -2 -12 -5z"/>
<path d="M1157 743 c-4 -3 -7 -11 -7 -17 0 -6 5 -5 12 2 6 6 9 14 7 17 -3 3
-9 2 -12 -2z"/>
<path d="M1356 735 c-3 -8 -1 -15 4 -15 13 0 22 18 11 24 -5 3 -11 -1 -15 -9z"/>
<path d="M5669 733 c-13 -16 -12 -17 4 -4 9 7 17 15 17 17 0 8 -8 3 -21 -13z"/>
<path d="M5877 743 c-4 -3 -7 -11 -7 -17 0 -6 5 -5 12 2 6 6 9 14 7 17 -3 3
-9 2 -12 -2z"/>
<path d="M733 725 c-9 -24 1 -27 15 -5 8 13 8 20 2 20 -6 0 -13 -7 -17 -15z"/>
<path d="M1255 730 c3 -5 8 -10 11 -10 2 0 4 5 4 10 0 6 -5 10 -11 10 -5 0 -7
-4 -4 -10z"/>
<path d="M5970 730 c0 -5 5 -10 10 -10 6 0 10 5 10 10 0 6 -4 10 -10 10 -5 0
-10 -4 -10 -10z"/>
<path d="M860 700 c0 -5 5 -10 11 -10 5 0 7 5 4 10 -3 6 -8 10 -11 10 -2 0 -4
-4 -4 -10z"/>
<path d="M1065 700 c3 -5 8 -10 11 -10 2 0 4 5 4 10 0 6 -5 10 -11 10 -5 0 -7
-4 -4 -10z"/>
<path d="M815 689 c-11 -17 1 -21 15 -4 8 9 8 15 2 15 -6 0 -14 -5 -17 -11z"/>
<path d="M1020 690 c-8 -6 -28 -7 -45 -4 -20 4 -27 3 -20 -4 21 -20 50 -21 75
-2 25 20 17 28 -10 10z"/>
<path d="M1224 687 c-4 -12 -11 -14 -31 -6 -31 12 -50 12 -37 0 19 -18 61 -21
74 -6 7 9 10 18 7 22 -4 3 -9 -1 -13 -10z"/>
<path d="M5535 690 c-3 -5 -2 -10 4 -10 5 0 13 5 16 10 3 6 2 10 -4 10 -5 0
-13 -4 -16 -10z"/>
<path d="M5740 690 c-8 -5 -12 -12 -9 -15 4 -3 12 1 19 10 14 17 11 19 -10 5z"/>
<path d="M5940 690 c-8 -6 -28 -7 -44 -4 -19 4 -26 3 -22 -5 4 -6 15 -11 25
-11 9 0 21 -4 27 -9 5 -6 16 0 27 15 19 25 13 31 -13 14z"/>
<path d="M736 682 c-2 -4 10 -9 27 -9 26 -2 28 0 12 7 -26 11 -33 12 -39 2z"/>
<path d="M5465 680 c3 -5 13 -10 21 -10 8 0 14 -4 14 -9 0 -5 6 -11 13 -14 8
-3 14 1 14 9 0 7 -14 18 -30 24 -37 12 -40 12 -32 0z"/>
<path d="M5675 680 c3 -5 16 -10 28 -9 21 0 21 1 2 9 -28 12 -37 12 -30 0z"/>
<path d="M890 659 c0 -5 5 -7 10 -4 6 3 10 8 10 11 0 2 -4 4 -10 4 -5 0 -10
-5 -10 -11z"/>
<path d="M6022 650 c0 -14 2 -19 5 -12 2 6 2 18 0 25 -3 6 -5 1 -5 -13z"/>
<path d="M731 624 c0 -11 3 -14 6 -6 3 7 2 16 -1 19 -3 4 -6 -2 -5 -13z"/>
<path d="M925 630 c3 -5 8 -10 11 -10 2 0 4 5 4 10 0 6 -5 10 -11 10 -5 0 -7
-4 -4 -10z"/>
<path d="M5430 630 c0 -5 5 -10 11 -10 5 0 7 5 4 10 -3 6 -8 10 -11 10 -2 0
-4 -4 -4 -10z"/>
<path d="M5645 630 c3 -5 8 -10 11 -10 2 0 4 5 4 10 0 6 -5 10 -11 10 -5 0 -7
-4 -4 -10z"/>
<path d="M5850 632 c0 -4 11 -12 25 -19 14 -6 25 -8 25 -4 0 4 -11 13 -25 19
-14 6 -25 8 -25 4z"/>
<path d="M6057 629 c7 -7 15 -10 18 -7 3 3 -2 9 -12 12 -14 6 -15 5 -6 -5z"/>
<path d="M1460 591 c0 -12 5 -21 10 -21 6 0 10 6 10 14 0 8 -4 18 -10 21 -5 3
-10 -3 -10 -14z"/>
<path d="M1580 584 c0 -17 22 -14 28 4 2 7 -3 12 -12 12 -9 0 -16 -7 -16 -16z"/>
<path d="M1700 585 c0 -8 7 -15 15 -15 8 0 15 7 15 15 0 8 -7 15 -15 15 -8 0
-15 -7 -15 -15z"/>
<path d="M1831 584 c0 -11 3 -14 6 -6 3 7 2 16 -1 19 -3 4 -6 -2 -5 -13z"/>
<path d="M1946 585 c-3 -9 0 -15 9 -15 16 0 20 16 6 24 -5 3 -11 -1 -15 -9z"/>
<path d="M2070 586 c0 -9 5 -16 10 -16 6 0 10 4 10 9 0 6 -4 13 -10 16 -5 3
-10 -1 -10 -9z"/>
<path d="M2187 593 c-12 -11 -8 -23 8 -23 8 0 15 7 15 15 0 16 -12 20 -23 8z"/>
<path d="M2307 594 c-8 -8 1 -24 14 -24 5 0 9 7 9 15 0 15 -12 20 -23 9z"/>
<path d="M2427 593 c-12 -11 -8 -23 8 -23 8 0 15 7 15 15 0 16 -12 20 -23 8z"/>
<path d="M2550 586 c0 -9 5 -16 10 -16 6 0 10 4 10 9 0 6 -4 13 -10 16 -5 3
-10 -1 -10 -9z"/>
<path d="M2670 585 c0 -8 5 -15 10 -15 6 0 10 7 10 15 0 8 -4 15 -10 15 -5 0
-10 -7 -10 -15z"/>
<path d="M2796 591 c-4 -7 -5 -15 -2 -18 9 -9 19 4 14 18 -4 11 -6 11 -12 0z"/>
<path d="M2910 585 c0 -8 5 -15 10 -15 6 0 10 7 10 15 0 8 -4 15 -10 15 -5 0
-10 -7 -10 -15z"/>
<path d="M3030 585 c0 -8 7 -15 15 -15 8 0 15 7 15 15 0 8 -7 15 -15 15 -8 0
-15 -7 -15 -15z"/>
<path d="M3156 592 c-3 -6 -1 -14 5 -17 15 -10 25 3 12 16 -7 7 -13 7 -17 1z"/>
<path d="M3276 591 c-4 -7 -5 -15 -2 -18 9 -9 19 4 14 18 -4 11 -6 11 -12 0z"/>
<path d="M3400 585 c0 -8 5 -15 10 -15 6 0 10 7 10 15 0 8 -4 15 -10 15 -5 0
-10 -7 -10 -15z"/>
<path d="M3526 593 c-11 -11 -6 -23 9 -23 8 0 15 4 15 9 0 13 -16 22 -24 14z"/>
<path d="M3646 585 c-3 -9 0 -15 9 -15 9 0 12 6 9 15 -4 8 -7 15 -9 15 -2 0
-5 -7 -9 -15z"/>
<path d="M3770 586 c0 -9 5 -16 10 -16 6 0 10 4 10 9 0 6 -4 13 -10 16 -5 3
-10 -1 -10 -9z"/>
<path d="M3890 586 c0 -9 5 -16 10 -16 6 0 10 4 10 9 0 6 -4 13 -10 16 -5 3
-10 -1 -10 -9z"/>
<path d="M4007 593 c-12 -11 -8 -23 8 -23 8 0 15 7 15 15 0 16 -12 20 -23 8z"/>
<path d="M4130 585 c0 -8 5 -15 10 -15 6 0 10 7 10 15 0 8 -4 15 -10 15 -5 0
-10 -7 -10 -15z"/>
<path d="M4250 585 c0 -8 5 -15 10 -15 6 0 10 7 10 15 0 8 -4 15 -10 15 -5 0
-10 -7 -10 -15z"/>
<path d="M4370 585 c0 -8 5 -15 10 -15 6 0 10 7 10 15 0 8 -4 15 -10 15 -5 0
-10 -7 -10 -15z"/>
<path d="M4490 585 c0 -8 7 -15 15 -15 9 0 12 6 9 15 -4 8 -10 15 -15 15 -5 0
-9 -7 -9 -15z"/>
<path d="M4616 585 c-3 -9 0 -15 9 -15 9 0 12 6 9 15 -4 8 -7 15 -9 15 -2 0
-5 -7 -9 -15z"/>
<path d="M4736 585 c-3 -9 0 -15 9 -15 16 0 20 16 6 24 -5 3 -11 -1 -15 -9z"/>
<path d="M4856 593 c-11 -11 -6 -23 9 -23 8 0 15 4 15 9 0 13 -16 22 -24 14z"/>
<path d="M4977 594 c-8 -8 1 -24 14 -24 5 0 9 7 9 15 0 15 -12 20 -23 9z"/>
<path d="M5090 585 c0 -8 7 -15 15 -15 8 0 15 7 15 15 0 8 -7 15 -15 15 -8 0
-15 -7 -15 -15z"/>
<path d="M5220 585 c0 -8 5 -15 10 -15 6 0 10 7 10 15 0 8 -4 15 -10 15 -5 0
-10 -7 -10 -15z"/>
<path d="M5340 585 c0 -8 5 -15 10 -15 6 0 10 7 10 15 0 8 -4 15 -10 15 -5 0
-10 -7 -10 -15z"/>
<path d="M6487 592 c-3 -4 -3 -20 0 -35 4 -21 8 -25 14 -15 12 18 11 58 0 58
-6 0 -12 -3 -14 -8z"/>
<path d="M1049 552 c5 -34 6 -35 9 -8 2 16 0 32 -5 37 -5 5 -7 -7 -4 -29z"/>
<path d="M846 565 c-3 -8 -1 -15 4 -15 6 0 10 7 10 15 0 8 -2 15 -4 15 -2 0
-6 -7 -10 -15z"/>
<path d="M5468 562 c-11 -15 -11 -15 4 -4 10 8 19 9 22 3 3 -5 0 -12 -6 -14
-7 -3 5 -6 26 -6 44 -1 44 0 -1 21 -29 15 -33 15 -45 0z"/>
<path d="M5563 558 c-2 -18 0 -20 7 -8 12 18 13 30 2 30 -4 0 -9 -10 -9 -22z"/>
<path d="M5771 549 c-1 -44 -26 -69 -72 -70 -32 0 -32 -1 -10 -10 18 -7 34 -5
66 11 23 11 55 21 71 21 27 2 27 2 -6 8 -30 5 -36 11 -41 41 l-6 35 -2 -36z"/>
<path d="M5975 569 c-4 -6 -5 -12 -2 -15 2 -3 7 2 10 11 7 17 1 20 -8 4z"/>
<path d="M775 550 c-16 -7 -12 -9 18 -9 23 -1 36 3 32 9 -7 12 -23 12 -50 0z"/>
<path d="M990 550 c-12 -8 -9 -10 13 -10 15 0 27 5 27 10 0 13 -20 13 -40 0z"/>
<path d="M1190 550 c-11 -7 -7 -10 18 -10 20 0 31 4 27 10 -8 13 -26 13 -45 0z"/>
<path d="M5715 550 c-18 -8 -17 -9 8 -9 16 -1 26 3 22 9 -3 6 -7 10 -8 9 -1 0
-11 -4 -22 -9z"/>
<path d="M5910 550 c-11 -7 -7 -10 18 -10 20 0 31 4 27 10 -8 13 -26 13 -45 0z"/>
<path d="M1161 534 c0 -11 3 -14 6 -6 3 7 2 16 -1 19 -3 4 -6 -2 -5 -13z"/>
<path d="M5872 528 c-16 -16 -15 -29 1 -22 8 3 14 11 14 19 0 18 0 18 -15 3z"/>
<path d="M730 515 c0 -8 2 -15 4 -15 2 0 6 7 10 15 3 8 1 15 -4 15 -6 0 -10
-7 -10 -15z"/>
<path d="M5567 523 c-15 -14 -5 -19 36 -20 23 0 31 1 17 4 -14 3 -30 9 -36 14
-6 5 -14 6 -17 2z"/>
<path d="M5660 520 c-8 -5 -11 -12 -7 -16 4 -4 13 -2 19 4 15 15 7 24 -12 12z"/>
<path d="M5420 510 c0 -5 6 -10 14 -10 8 0 18 5 21 10 3 6 -3 10 -14 10 -12 0
-21 -4 -21 -10z"/>
<path d="M838 494 c-36 -19 -35 -22 2 -16 17 2 30 10 30 18 0 17 2 17 -32 -2z"/>
<path d="M1066 501 c-4 -7 -5 -15 -2 -18 9 -9 19 4 14 18 -4 11 -6 11 -12 0z"/>
<path d="M3108 503 c7 -3 16 -2 19 1 4 3 -2 6 -13 5 -11 0 -14 -3 -6 -6z"/>
<path d="M4430 499 c0 -5 5 -7 10 -4 6 3 10 8 10 11 0 2 -4 4 -10 4 -5 0 -10
-5 -10 -11z"/>
<path d="M4990 495 c0 -8 4 -15 10 -15 5 0 7 7 4 15 -4 8 -8 15 -10 15 -2 0
-4 -7 -4 -15z"/>
<path d="M1265 490 c3 -5 8 -10 11 -10 2 0 4 5 4 10 0 6 -5 10 -11 10 -5 0 -7
-4 -4 -10z"/>
<path d="M5570 490 c0 -5 5 -10 11 -10 5 0 7 5 4 10 -3 6 -8 10 -11 10 -2 0
-4 -4 -4 -10z"/>
<path d="M986 481 l-38 -6 31 -12 c17 -6 31 -8 31 -4 0 5 10 13 23 19 24 12
13 12 -47 3z"/>
<path d="M1225 480 c-3 -6 1 -7 9 -4 18 7 21 14 7 14 -6 0 -13 -4 -16 -10z"/>
<path d="M5291 474 c0 -11 3 -14 6 -6 3 7 2 16 -1 19 -3 4 -6 -2 -5 -13z"/>
<path d="M5529 473 c-13 -17 -13 -17 6 -3 11 8 22 16 24 17 2 2 0 3 -6 3 -6 0
-17 -8 -24 -17z"/>
<path d="M5945 480 c-3 -6 1 -7 9 -4 18 7 21 14 7 14 -6 0 -13 -4 -16 -10z"/>
<path d="M730 473 c0 -10 57 -9 67 0 3 4 -10 7 -30 7 -20 0 -37 -3 -37 -7z"/>
<path d="M1165 473 c11 -3 24 -9 30 -14 14 -14 25 -11 19 6 -4 9 -18 15 -38
14 -21 -1 -24 -3 -11 -6z"/>
<path d="M5465 473 c11 -3 26 -10 33 -15 9 -8 12 -6 12 6 0 12 -9 16 -32 15
-22 -1 -26 -3 -13 -6z"/>
<path d="M5885 473 c11 -3 24 -9 30 -14 14 -14 25 -11 19 6 -4 9 -18 15 -38
14 -21 -1 -24 -3 -11 -6z"/>
<path d="M725 420 c3 -5 8 -10 11 -10 2 0 4 5 4 10 0 6 -5 10 -11 10 -5 0 -7
-4 -4 -10z"/>
<path d="M918 423 c6 -2 18 -2 25 0 6 3 1 5 -13 5 -14 0 -19 -2 -12 -5z"/>
<path d="M1328 423 c6 -2 18 -2 25 0 6 3 1 5 -13 5 -14 0 -19 -2 -12 -5z"/>
<path d="M2715 420 c-3 -5 -1 -10 4 -10 6 0 11 5 11 10 0 6 -2 10 -4 10 -3 0
-8 -4 -11 -10z"/>
<path d="M5430 419 c0 -5 5 -7 10 -4 6 3 10 8 10 11 0 2 -4 4 -10 4 -5 0 -10
-5 -10 -11z"/>
<path d="M5638 423 c6 -2 18 -2 25 0 6 3 1 5 -13 5 -14 0 -19 -2 -12 -5z"/>
<path d="M5840 426 c0 -2 9 -6 20 -9 11 -3 20 -1 20 4 0 5 -9 9 -20 9 -11 0
-20 -2 -20 -4z"/>
<path d="M6040 426 c0 -2 9 -6 20 -9 11 -3 20 -1 20 4 0 5 -9 9 -20 9 -11 0
-20 -2 -20 -4z"/>
<path d="M3223 243 c-7 -16 -15 -41 -18 -58 -5 -25 -4 -27 5 -12 14 22 56 22
64 1 4 -9 9 -14 12 -11 9 9 -28 107 -41 107 -5 0 -15 -12 -22 -27z m37 -24 c0
-5 -7 -9 -15 -9 -15 0 -20 12 -9 23 8 8 24 -1 24 -14z"/>
<path d="M3461 252 c-17 -32 -10 -112 9 -112 5 0 3 16 -3 35 -8 26 -7 42 2 61
14 32 7 45 -8 16z"/>
<path d="M3492 218 c3 -49 5 -53 29 -56 35 -4 51 19 47 65 -3 36 -5 38 -41 41
l-38 3 3 -53z m58 22 c0 -5 -7 -10 -15 -10 -8 0 -15 5 -15 10 0 6 7 10 15 10
8 0 15 -4 15 -10z m5 -39 c3 -5 1 -13 -5 -16 -15 -9 -43 3 -35 15 8 13 32 13
40 1z"/>
<path d="M3595 255 c16 -45 17 -56 6 -87 l-11 -33 20 24 c26 30 25 63 -1 92
-18 21 -20 21 -14 4z"/>
<path d="M3344 227 c4 -18 2 -35 -6 -45 -11 -13 -10 -14 14 -9 17 5 28 3 31
-6 2 -6 7 -9 11 -5 4 3 2 15 -6 27 -10 16 -10 23 0 33 18 18 14 30 -6 19 -13
-7 -23 -6 -32 2 -10 10 -11 6 -6 -16z"/>
</g>
</svg>
